<svg width="65" height="61" viewBox="0 0 65 61" fill="none" xmlns="http://www.w3.org/2000/svg">
<path fill-rule="evenodd" clip-rule="evenodd" d="M48.5674 0.333827C42.9757 1.86748 38.8894 6.65982 38.2496 12.4347C37.4802 19.3788 41.7793 25.7355 48.5243 27.6275C51.4395 28.4451 55.7292 28.0595 58.2819 26.7502C59.6811 26.0326 61.5952 24.5284 62.4452 23.4785L63.1758 22.576L61.4801 21.2358C60.5474 20.4988 59.7521 19.8957 59.7127 19.8957C59.673 19.8957 59.1808 20.3326 58.6188 20.8666C53.975 25.2797 46.7989 24.0716 44.1705 18.4343C42.2437 14.3016 43.0702 9.61862 46.2594 6.59936C47.4005 5.5189 48.4513 4.94172 50.0371 4.52354C52.1474 3.96733 55.068 4.27027 56.9467 5.24038L57.7451 5.65266V10.3269H62.3714V3.63812L61.6171 3.00006C60.6631 2.19303 58.0114 0.887799 56.4376 0.450485C55.7284 0.253408 54.1524 0.0791343 52.6158 0.0278292C50.4682 -0.043835 49.7449 0.0109308 48.5674 0.333827ZM7.4585 5.03354L8.01165 5.04799C8.31579 5.05573 9.24367 5.0543 10.0734 5.04433C10.9031 5.03435 11.7125 5.11294 11.8721 5.2188C12.0316 5.32467 13.941 10.434 16.1152 16.5727L20.0682 27.734H24.4256L32.7637 5.13533L37.2281 5.0201V0.55452L29.2829 0.561238L25.9696 10.3463C24.1474 15.728 22.6006 20.1659 22.5326 20.2086C22.4644 20.2512 20.9124 15.8693 19.0833 10.4713L15.7582 0.656316L7.4585 0.546173V5.03354ZM9.36939 37.71L13.694 37.8256V55.9314H9.25514L9.36939 60.3087L29.7857 60.4141V55.9314H18.3204V50.579C18.3204 44.6535 18.4439 43.7681 19.5691 41.6314C20.2325 40.3715 21.5546 39.0378 22.7456 38.4268C23.3738 38.1043 25.2253 37.6082 25.7996 37.6082C25.9483 37.6082 25.9869 38.2566 25.9209 39.6441L25.824 41.68H30.3892V33.5364L27.8246 33.5388C24.9303 33.5414 23.7837 33.7803 21.9728 34.7573C20.8269 35.3754 19.0286 37.066 18.2908 38.219C17.9712 38.7184 17.9626 38.699 17.8381 37.201C17.7683 36.3612 17.6898 35.216 17.6639 34.6561L17.6164 33.6382L9.25474 33.528L9.36939 37.71ZM35.4178 38.219H39.4408V45.4037C39.4408 53.12 39.5099 53.7892 40.5457 56.0847C41.1463 57.4158 42.7512 59.158 44.0146 59.85C45.7034 60.7751 47.1161 61.0742 49.3734 60.985C51.0618 60.9182 51.6123 60.8093 52.6017 60.3465C54.1723 59.612 55.2858 58.6655 56.2517 57.2438L57.041 56.0823L57.3822 58.1954C57.5699 59.3577 57.7282 60.3337 57.7342 60.3642C57.7402 60.3948 59.3518 60.3948 61.3154 60.3642L64.8857 60.3087L65 55.9314H61.4294L61.2975 51.8087C61.2249 49.5413 61.1653 44.5024 61.1651 40.6112L61.1645 33.5364H51.9118V38.219H56.5382V43.79C56.5382 46.8539 56.4465 49.8544 56.3342 50.4577C55.8917 52.8372 54.3513 54.9711 52.2851 56.067C51.3506 56.5626 50.9811 56.6383 49.4981 56.6387C47.4464 56.6391 46.4078 56.1843 45.4705 54.8746C44.2236 53.1325 44.1954 52.8802 44.1148 42.7489L44.0414 33.5364H35.4178V38.219ZM0.154279 55.874C0.102182 55.9616 0.0462626 57.018 0.0297686 58.2218L0 60.4104H4.85688L4.74303 55.8296L2.49602 55.7722C1.26018 55.7407 0.206376 55.7865 0.154279 55.874Z" fill="black"/>
</svg>
