<svg width="76" height="72" viewBox="0 0 76 72" fill="none" xmlns="http://www.w3.org/2000/svg">
<path d="M73.3315 65.3433H73.1963V63.5905C73.1963 62.1176 71.9993 60.9192 70.5279 60.9192H67.3495V58.5024C67.3495 57.3543 66.4479 56.4156 65.3167 56.3521V33.6338C66.4479 33.5703 67.3495 32.6316 67.3495 31.4835V29.0667H70.4332C71.608 29.0667 72.564 28.1098 72.564 26.9335V24.6557H74.1848C75.1385 24.6557 75.9145 23.8788 75.9145 22.9242V20.9555C75.9145 20.3189 75.5672 19.7354 75.0075 19.4324L49.4764 5.61036C48.9343 5.31643 48.2581 5.51882 47.9654 6.06122C47.6725 6.60347 47.8741 7.28079 48.4157 7.57383L73.6845 21.2539V22.4233H2.31548V21.2636L38.548 2.23161L43.8211 5.08654C44.3631 5.38018 45.0394 5.17793 45.3322 4.63568C45.6251 4.09344 45.4235 3.41611 44.8819 3.12307L39.6086 0.267991C38.9573 -0.0846407 38.1768 -0.0895447 37.5208 0.254914L1.0119 19.4273C0.440414 19.7274 0.0855 20.3149 0.0855 20.9607V22.9241C0.0855 23.8788 0.861531 24.6556 1.81524 24.6556H3.43603V26.9335C3.43603 28.1097 4.39182 29.0667 5.56685 29.0667H8.65049V31.4835C8.65049 32.6316 9.5521 33.5703 10.6833 33.6338V48.4233C10.6833 49.0399 11.1825 49.5395 11.7983 49.5395C12.414 49.5395 12.9132 49.0397 12.9132 48.4233V33.64H16.481V56.346H12.9133V53.6694C12.9133 53.0529 12.4141 52.5533 11.7984 52.5533C11.1827 52.5533 10.6835 53.0529 10.6835 53.6694V56.3521C9.55225 56.4156 8.65064 57.3543 8.65064 58.5024V60.9192H5.47215C4.00084 60.9192 2.80369 62.1176 2.80369 63.5905V65.3433H2.66846C1.197 65.3433 0 66.5416 0 68.0147V70.3493C0 71.2594 0.739664 72 1.6487 72H74.3513C75.2603 72 76 71.2595 76 70.3493V68.0147C76 66.5416 74.803 65.3433 73.3315 65.3433ZM5.66601 26.8344V24.6557H70.334V26.8344H5.66601ZM65.1195 58.5783V60.9191H57.486V58.5783H65.1195ZM59.5188 56.3459V33.6399H63.0867V56.3459H59.5188ZM57.486 31.4076V29.0668H65.1195V31.4076H57.486ZM49.7815 56.3521V33.6338C50.9127 33.5703 51.8143 32.6316 51.8143 31.4835V29.0667H55.256V31.4835C55.256 32.6316 56.1576 33.5703 57.2889 33.6338V56.3521C56.1576 56.4156 55.256 57.3543 55.256 58.5024V60.9192H51.8143V58.5024C51.8143 57.3543 50.9127 56.4156 49.7815 56.3521ZM49.5844 58.5783V60.9191H41.9508V58.5783H49.5844ZM43.9837 56.3459V33.6399H47.5515V56.3459H43.9837ZM41.9508 31.4076V29.0668H49.5844V31.4076H41.9508ZM34.2463 56.3521V33.6338C35.3776 33.5703 36.2792 32.6316 36.2792 31.4835V29.0667H39.7208V31.4835C39.7208 32.6316 40.6224 33.5703 41.7537 33.6338V56.3521C40.6224 56.4156 39.7208 57.3543 39.7208 58.5024V60.9192H36.2792V58.5024C36.2792 57.3543 35.3776 56.4156 34.2463 56.3521ZM34.0492 58.5783V60.9191H26.4156V58.5783H34.0492ZM28.4485 56.3459V33.6399H32.0163V56.3459H28.4485ZM26.4156 31.4076V29.0668H34.0492V31.4076H26.4156ZM18.7111 56.3521V33.6338C19.8424 33.5703 20.744 32.6316 20.744 31.4835V29.0667H24.1857V31.4835C24.1857 32.6316 25.0873 33.5703 26.2185 33.6338V56.3521C25.0873 56.4156 24.1857 57.3543 24.1857 58.5024V60.9192H20.744V58.5024C20.744 57.3543 19.8424 56.4156 18.7111 56.3521ZM10.8805 31.4076V29.0668H18.514V31.4076H10.8805ZM10.8805 58.5783H18.5142V60.9191H10.8805V58.5783ZM5.03366 63.5905C5.03366 63.3486 5.23034 63.1515 5.47215 63.1515H70.5279C70.7697 63.1515 70.9663 63.3484 70.9663 63.5905V65.3433H5.03366V63.5905ZM73.77 69.7676H2.22998V68.0147C2.22998 67.7727 2.42666 67.5757 2.66846 67.5757H73.3315C73.5733 67.5757 73.77 67.7726 73.77 68.0147V69.7676Z" fill="#4E95FF"/>
</svg>
