<svg width="70" height="70" viewBox="0 0 70 70" fill="none" xmlns="http://www.w3.org/2000/svg">
<path d="M0 67.5V69.75H69.75V67.5H18H0Z" fill="#4E95FF"/>
<path d="M51.75 54C49.2682 54 47.25 56.0182 47.25 58.5C47.25 60.9818 49.2682 63 51.75 63C54.2318 63 56.25 60.9818 56.25 58.5C56.25 56.0182 54.2318 54 51.75 54ZM51.75 60.75C50.5091 60.75 49.5 59.7409 49.5 58.5C49.5 57.2591 50.5091 56.25 51.75 56.25C52.9909 56.25 54 57.2591 54 58.5C54 59.7409 52.9909 60.75 51.75 60.75Z" fill="#4E95FF"/>
<path d="M18 54C15.5182 54 13.5 56.0182 13.5 58.5C13.5 60.9818 15.5182 63 18 63C20.4818 63 22.5 60.9818 22.5 58.5C22.5 56.0182 20.4818 54 18 54ZM18 60.75C16.7591 60.75 15.75 59.7409 15.75 58.5C15.75 57.2591 16.7591 56.25 18 56.25C19.2409 56.25 20.25 57.2591 20.25 58.5C20.25 59.7409 19.2409 60.75 18 60.75Z" fill="#4E95FF"/>
<path d="M64.4141 41.823L53.5151 39.4875L45.8258 29.4908C43.5251 26.4994 39.9049 24.8726 36.135 25.1258L13.7475 26.6693C10.3399 26.9055 7.263 28.6448 5.3055 31.4415L3.051 34.6624C1.05525 37.5143 0 40.86 0 44.3396V56.25C0 58.1107 1.51425 59.625 3.375 59.625H9.07763C9.6345 64.0575 13.419 67.5 18 67.5C22.581 67.5 26.3655 64.0575 26.9224 59.625H42.8288C43.3856 64.0575 47.1701 67.5 51.7511 67.5C56.3321 67.5 60.1166 64.0575 60.6735 59.625H66.375C68.2357 59.625 69.75 58.1107 69.75 56.25V48.4222C69.75 45.2599 67.5056 42.4856 64.4141 41.823ZM2.25 47.25H4.5V50.1592L2.25 52.4092V47.25ZM18 65.25C14.2774 65.25 11.25 62.2226 11.25 58.5C11.25 54.7774 14.2774 51.75 18 51.75C21.7226 51.75 24.75 54.7774 24.75 58.5C24.75 62.2226 21.7226 65.25 18 65.25ZM51.75 65.25C48.0274 65.25 45 62.2226 45 58.5C45 54.7774 48.0274 51.75 51.75 51.75C55.4726 51.75 58.5 54.7774 58.5 58.5C58.5 62.2226 55.4726 65.25 51.75 65.25ZM66.375 57.375H60.6724C60.1155 52.9425 56.331 49.5 51.75 49.5C47.169 49.5 43.3845 52.9425 42.8276 57.375H26.9224C26.3655 52.9425 22.581 49.5 18 49.5C13.419 49.5 9.6345 52.9425 9.07763 57.375H3.375C2.75513 57.375 2.25 56.871 2.25 56.25V55.125C2.54813 55.125 2.835 55.0069 3.04538 54.7954L6.42037 51.4204C6.63188 51.21 6.75 50.9243 6.75 50.625V46.125C6.75 45.5029 6.246 45 5.625 45H2.25V44.3396C2.25 41.3235 3.1635 38.4233 4.89375 35.9528L7.14825 32.7319C8.71425 30.4954 11.1758 29.1026 13.9016 28.9148L36.288 27.3713C39.2906 27.1463 42.1999 28.4693 44.0415 30.8621L51.9829 41.1863C52.146 41.3978 52.3778 41.544 52.6388 41.6003L63.9428 44.0224C65.1915 44.2901 66.2254 45.0799 66.8531 46.125H64.125C63.504 46.125 63 46.6279 63 47.25V51.75C63 52.3721 63.504 52.875 64.125 52.875H67.5V56.25C67.5 56.871 66.9949 57.375 66.375 57.375ZM67.5 48.4222V50.625H65.25V48.375H67.4955C67.4955 48.3908 67.5 48.4065 67.5 48.4222Z" fill="#4E95FF"/>
<path d="M42.1425 32.3674C40.7756 30.4155 38.4503 29.3186 36.0743 29.5099L13.9804 31.2773C11.8597 31.446 9.92138 32.625 8.79413 34.4284L4.671 41.0288C4.455 41.3764 4.44263 41.8129 4.64175 42.1706C4.83975 42.5284 5.2155 42.75 5.625 42.75H47.25C47.6696 42.75 48.0544 42.5171 48.2479 42.1448C48.4414 41.7724 48.4121 41.3246 48.1714 40.9804L42.1425 32.3674ZM30.375 32.2245V40.5H19.125V33.1245L30.375 32.2245ZM10.7044 35.622C11.4548 34.4194 12.7474 33.633 14.1615 33.5216L16.875 33.3045V40.5H7.6545L10.7044 35.622ZM32.625 40.5V32.0445L36.2554 31.7542C37.8315 31.6215 39.3885 32.3561 40.3009 33.6577L45.09 40.5H32.625Z" fill="#4E95FF"/>
<path d="M30.375 45H34.875V47.25H30.375V45Z" fill="#4E95FF"/>
<path d="M16.875 45H21.375V47.25H16.875V45Z" fill="#4E95FF"/>
<path d="M43.875 15.75C46.3568 15.75 48.375 17.7682 48.375 20.25C48.375 20.8721 48.879 21.375 49.5 21.375C50.121 21.375 50.625 20.8721 50.625 20.25C50.625 17.7682 52.6432 15.75 55.125 15.75C55.746 15.75 56.25 15.2471 56.25 14.625C56.25 14.0029 55.746 13.5 55.125 13.5C52.6432 13.5 50.625 11.4818 50.625 9C50.625 8.37788 50.121 7.875 49.5 7.875C48.879 7.875 48.375 8.37788 48.375 9C48.375 11.4818 46.3568 13.5 43.875 13.5C43.254 13.5 42.75 14.0029 42.75 14.625C42.75 15.2471 43.254 15.75 43.875 15.75ZM49.5 12.7271C49.9995 13.4786 50.6464 14.1244 51.3979 14.625C50.6464 15.1245 50.0006 15.7714 49.5 16.5229C49.0005 15.7714 48.3536 15.1256 47.6021 14.625C48.3536 14.1255 49.0005 13.4786 49.5 12.7271Z" fill="#4E95FF"/>
<path d="M57.375 7.875C59.8568 7.875 61.875 9.89325 61.875 12.375C61.875 12.9971 62.379 13.5 63 13.5C63.621 13.5 64.125 12.9971 64.125 12.375C64.125 9.89325 66.1432 7.875 68.625 7.875C69.246 7.875 69.75 7.37213 69.75 6.75C69.75 6.12787 69.246 5.625 68.625 5.625C66.1432 5.625 64.125 3.60675 64.125 1.125C64.125 0.502875 63.621 0 63 0C62.379 0 61.875 0.502875 61.875 1.125C61.875 3.60675 59.8568 5.625 57.375 5.625C56.754 5.625 56.25 6.12787 56.25 6.75C56.25 7.37213 56.754 7.875 57.375 7.875ZM63 4.85213C63.4995 5.60363 64.1464 6.2505 64.8979 6.75C64.1464 7.2495 63.4995 7.89637 63 8.64787C62.5005 7.89637 61.8536 7.2495 61.1021 6.75C61.8536 6.2505 62.5005 5.60363 63 4.85213Z" fill="#4E95FF"/>
<path d="M1.125 15.75C3.60675 15.75 5.625 17.7682 5.625 20.25C5.625 20.8721 6.129 21.375 6.75 21.375C7.371 21.375 7.875 20.8721 7.875 20.25C7.875 17.7682 9.89325 15.75 12.375 15.75C12.996 15.75 13.5 15.2471 13.5 14.625C13.5 14.0029 12.996 13.5 12.375 13.5C9.89325 13.5 7.875 11.4818 7.875 9C7.875 8.37788 7.371 7.875 6.75 7.875C6.129 7.875 5.625 8.37788 5.625 9C5.625 11.4818 3.60675 13.5 1.125 13.5C0.504 13.5 0 14.0029 0 14.625C0 15.2471 0.504 15.75 1.125 15.75ZM6.75 12.7271C7.2495 13.4786 7.89637 14.1255 8.64787 14.625C7.89637 15.1245 7.2495 15.7714 6.75 16.5229C6.2505 15.7714 5.60363 15.1245 4.85213 14.625C5.60363 14.1255 6.2505 13.4786 6.75 12.7271Z" fill="#4E95FF"/>
<path d="M14.625 7.875C17.1068 7.875 19.125 9.89325 19.125 12.375C19.125 12.9971 19.629 13.5 20.25 13.5C20.871 13.5 21.375 12.9971 21.375 12.375C21.375 9.89325 23.3932 7.875 25.875 7.875C26.496 7.875 27 7.37213 27 6.75C27 6.12787 26.496 5.625 25.875 5.625C23.3932 5.625 21.375 3.60675 21.375 1.125C21.375 0.502875 20.871 0 20.25 0C19.629 0 19.125 0.502875 19.125 1.125C19.125 3.60675 17.1068 5.625 14.625 5.625C14.004 5.625 13.5 6.12787 13.5 6.75C13.5 7.37213 14.004 7.875 14.625 7.875ZM20.25 4.85213C20.7495 5.60363 21.3964 6.2505 22.1479 6.75C21.3964 7.2495 20.7495 7.89637 20.25 8.64787C19.7505 7.89637 19.1036 7.2495 18.3521 6.75C19.1036 6.2505 19.7505 5.60363 20.25 4.85213Z" fill="#4E95FF"/>
</svg>
