<svg width="64" height="72" viewBox="0 0 64 72" fill="none" xmlns="http://www.w3.org/2000/svg">
<path d="M37.5652 9.84375H36.1739V8.4375C36.1739 6.88669 34.9256 5.625 33.3913 5.625H30.6087C29.0744 5.625 27.8261 6.88669 27.8261 8.4375V9.84375H26.4348C24.9005 9.84375 23.6522 11.1054 23.6522 12.6562V15.4688C23.6522 17.0196 24.9005 18.2812 26.4348 18.2812H27.8261V19.6875C27.8261 21.2383 29.0744 22.5 30.6087 22.5H33.3913C34.9256 22.5 36.1739 21.2383 36.1739 19.6875V18.2812H37.5652C39.0995 18.2812 40.3478 17.0196 40.3478 15.4688V12.6562C40.3478 11.1054 39.0995 9.84375 37.5652 9.84375ZM37.5652 15.4688H34.7826C34.0142 15.4688 33.3913 16.0983 33.3913 16.875V19.6875H30.6087V16.875C30.6087 16.0983 29.9858 15.4688 29.2174 15.4688H26.4348V12.6562H29.2174C29.9858 12.6562 30.6087 12.0267 30.6087 11.25L30.6084 8.4375H33.3913V11.25C33.3913 12.0267 34.0142 12.6562 34.7826 12.6562H37.5652V15.4688Z" fill="#4E95FF"/>
<path d="M62.6087 63.5625V59.3438C62.6087 58.5671 61.9858 57.9375 61.2174 57.9375H59.8259V18.2812H61.2174C61.9858 18.2812 62.6087 17.6517 62.6087 16.875V11.25C62.6087 10.4733 61.9858 9.84375 61.2174 9.84375H45.2732C43.4961 4.1445 38.2182 0 32 0C25.7818 0 20.5039 4.1445 18.727 9.84375H2.78261C2.01419 9.84375 1.3913 10.4733 1.3913 11.25V16.875C1.3913 17.6517 2.01419 18.2812 2.78261 18.2812H4.17391V23.739C4.17391 24.5157 4.7968 25.1453 5.56522 25.1453C6.33363 25.1453 6.95652 24.5157 6.95652 23.739V18.2812H18.727C20.5041 23.9805 25.782 28.125 32 28.125C38.218 28.125 43.4961 23.9805 45.273 18.2812H57.0432V57.9375H47.3041V33.7501C47.3041 32.1993 46.0558 30.9376 44.5215 30.9376H19.4783C17.9439 30.9376 16.6957 32.1993 16.6957 33.7501V57.9375H6.95652V36.3953C6.95652 35.6186 6.33363 34.989 5.56522 34.989C4.7968 34.989 4.17391 35.6186 4.17391 36.3953V57.9375H2.78261C2.01419 57.9375 1.3913 58.5671 1.3913 59.3438V63.5625C0.622887 63.5625 0 64.1921 0 64.9688V70.5938C0 71.3704 0.622887 72 1.3913 72H62.6087C63.3771 72 64 71.3704 64 70.5938V64.9688C64 64.1921 63.3771 63.5625 62.6087 63.5625ZM4.17391 15.4688V12.6562H18.1564C18.1107 13.1189 18.087 13.5879 18.087 14.0625C18.087 14.5371 18.1106 15.0061 18.1564 15.4688H4.17391ZM32 25.3125C25.8627 25.3125 20.8696 20.2658 20.8696 14.0625C20.8696 7.85925 25.8627 2.8125 32 2.8125C38.1373 2.8125 43.1304 7.85925 43.1304 14.0625C43.1304 20.2658 38.1375 25.3125 32 25.3125ZM45.8438 12.6562H59.8261V15.4688H45.8438C45.8894 15.0061 45.9132 14.5371 45.9132 14.0625C45.9132 13.5879 45.8894 13.1189 45.8438 12.6562ZM44.5216 57.9375H33.3913V33.7501H44.5216V57.9375ZM19.4783 57.9375V33.7501H30.6087V57.9375H19.4783ZM4.17391 63.5625V60.75H59.8261V63.5625H4.17391ZM61.2174 69.1875H2.78261V66.375H61.2174V69.1875Z" fill="#4E95FF"/>
<path d="M26.4346 43.0314C25.6662 43.0314 25.0433 43.661 25.0433 44.4376V47.2501C25.0433 48.0268 25.6662 48.6564 26.4346 48.6564C27.2031 48.6564 27.8259 48.0268 27.8259 47.2501V44.4376C27.8259 43.661 27.2029 43.0314 26.4346 43.0314Z" fill="#4E95FF"/>
<path d="M37.5654 43.0314C36.7969 43.0314 36.1741 43.661 36.1741 44.4376V47.2501C36.1741 48.0268 36.7969 48.6564 37.5654 48.6564C38.3338 48.6564 38.9567 48.0268 38.9567 47.2501V44.4376C38.9567 43.661 38.3338 43.0314 37.5654 43.0314Z" fill="#4E95FF"/>
<path d="M5.56522 31.4738C6.33363 31.4738 6.95652 30.8443 6.95652 30.0676V30.0666C6.95652 29.2899 6.33363 28.6609 5.56522 28.6609C4.7968 28.6609 4.17391 29.2909 4.17391 30.0676C4.17391 30.8443 4.79694 31.4738 5.56522 31.4738Z" fill="#4E95FF"/>
</svg>
