<svg width="78" height="70" viewBox="0 0 78 70" fill="none" xmlns="http://www.w3.org/2000/svg">
<path d="M28.4366 39.2189L35.78 35.7764C40.2433 33.6822 45.8866 35.8986 49.963 40.8114L56.3719 37.2551C57.7941 36.5834 59.7965 37.8129 60.7474 39.8955C61.2089 40.8602 61.3758 41.9429 61.2269 43.0047C61.1875 43.4091 61.0526 43.7979 60.8336 44.1381C60.6146 44.4783 60.3179 44.7597 59.9688 44.9586L54.0346 48.2591C56.4905 55.7811 54.6474 63.3047 49.4153 65.7521L42.0735 69.1929C40.9226 69.7301 39.67 70.0055 38.4034 69.9999C36.292 69.9502 34.2329 69.3231 32.4431 68.1846C29.0431 66.0135 26.3619 62.8578 24.7454 59.1246C20.9859 50.8715 22.6421 41.932 28.4366 39.2189ZM58.7596 42.8182C58.7901 42.7458 58.8114 42.6699 58.823 42.5921C58.8843 42.0254 58.7845 41.4527 58.5353 40.9418C58.3069 40.3419 57.8689 39.8483 57.3049 39.5556L51.4438 42.8116C52.0726 43.7766 52.629 44.7883 53.1081 45.8382C53.1211 45.8695 53.1325 45.9009 53.1471 45.9323L58.7596 42.8182ZM50.8944 46.8828C47.6989 39.8576 41.3794 35.887 36.8008 38.0291L35.0015 38.874C36.0755 39.1926 37.1054 39.6479 38.0669 40.2289C41.4669 42.3993 44.1481 45.5545 45.7647 49.2873C47.5143 52.9583 48.1416 57.0771 47.5656 61.1132C47.376 62.2325 47.0483 63.3231 46.5904 64.3593L48.3783 63.5176C52.9667 61.3657 54.0899 53.9031 50.8944 46.8828ZM26.9575 58.1047C28.3682 61.3822 30.7115 64.1568 33.6865 66.0723C34.7475 66.8239 35.9748 67.2979 37.2596 67.4522C38.5443 67.6065 39.8467 67.4364 41.0511 66.9568C42.1916 66.3357 43.1635 65.4384 43.8806 64.3444C44.5977 63.2505 45.0377 61.9938 45.1617 60.6857C45.6558 57.1439 45.0954 53.533 43.5526 50.317C42.1427 47.039 39.7992 44.2642 36.8235 42.3495C35.4092 41.4434 33.7815 40.939 32.1099 40.889C31.1978 40.8834 30.2955 41.0794 29.4654 41.4633C24.8851 43.6103 23.762 51.0729 26.9575 58.1047Z" fill="#4E95FF"/>
<path d="M57.7665 53.9873C58.7135 54.4824 59.7556 54.7615 60.8199 54.8051C61.8842 54.8487 62.945 54.6558 63.9283 54.2398C66.5744 52.9987 68.1851 49.8253 68.2355 45.7491C68.2398 45.4237 68.3701 45.1131 68.5982 44.8845C68.8264 44.656 69.134 44.5278 69.4545 44.5279H69.4708C69.6309 44.53 69.789 44.5642 69.9361 44.6284C70.0831 44.6926 70.2163 44.7856 70.328 44.902C70.4397 45.0185 70.5277 45.1562 70.587 45.3072C70.6463 45.4582 70.6757 45.6195 70.6736 45.7821C70.6693 47.8023 70.2531 49.7998 69.4513 51.6488L71.2717 50.7973C72.4123 50.176 73.3843 49.2787 74.1016 48.1848C74.8189 47.0909 75.2593 45.8343 75.3839 44.5262C75.8767 40.9842 75.3158 37.3735 73.7731 34.1575C72.3628 30.8798 70.0194 28.1051 67.0441 26.19C65.9829 25.4397 64.756 24.9663 63.4718 24.8118C62.1876 24.6572 60.8857 24.8262 59.6812 25.3038C59.6568 25.3161 59.6319 25.3272 59.6064 25.3368L57.8396 26.1619C60.2543 27.0353 62.4626 28.4113 64.3231 30.2017C66.1836 31.992 67.6551 34.1573 68.6435 36.5587C69.3537 38.1109 69.8891 39.7396 70.2396 41.4138C70.3065 41.7348 70.2452 42.0697 70.069 42.3448C69.8928 42.6199 69.6163 42.8127 69.3001 42.8809C69.2162 42.8986 69.1307 42.9074 69.0449 42.9073C68.7658 42.9069 68.4953 42.8092 68.2787 42.6304C68.0621 42.4516 67.9125 42.2027 67.8552 41.9254C67.5417 40.4329 67.0641 38.9809 66.4313 37.5967C63.2358 30.5731 56.9148 26.5926 52.3377 28.7446C51.1472 29.3994 50.1402 30.3508 49.4113 31.5092C48.6823 32.6676 48.2552 33.9952 48.1702 35.3672C48.1474 35.5281 48.0936 35.6828 48.0118 35.8226C47.9301 35.9624 47.822 36.0845 47.6938 36.1819C47.5656 36.2793 47.4197 36.3501 47.2646 36.3902C47.1094 36.4304 46.948 36.4391 46.7895 36.4159C46.631 36.3927 46.4786 36.3381 46.3409 36.2551C46.2032 36.1721 46.083 36.0623 45.9871 35.9322C45.8911 35.802 45.8214 35.6539 45.7819 35.4964C45.7423 35.3388 45.7337 35.1749 45.7566 35.014C45.9029 33.2342 46.489 31.5207 47.4606 30.032C48.4323 28.5432 49.7581 27.3274 51.3153 26.4969L58.6555 23.0528C58.682 23.0398 58.7092 23.0283 58.7368 23.0181C60.2911 22.3853 61.9746 22.1491 63.6397 22.3304C65.3048 22.5117 66.9007 23.1048 68.2875 24.0578C71.6871 26.2287 74.3682 29.3838 75.9853 33.1162C79.7448 41.3923 78.0901 50.3286 72.2941 53.0466L64.9506 56.4874C63.8036 57.0193 62.5561 57.2908 61.2951 57.2829C59.732 57.2644 58.1901 56.9119 56.7701 56.2481C56.4748 56.114 56.2441 55.8662 56.1287 55.5594C56.0134 55.2525 56.0228 54.9117 56.1549 54.6119C56.287 54.3121 56.531 54.0778 56.8333 53.9607C57.1355 53.8436 57.4712 53.8531 57.7665 53.9873Z" fill="#4E95FF"/>
<path d="M20.7095 45.8299C21.0329 45.8339 21.3414 45.9681 21.5673 46.203C21.7931 46.4379 21.9178 46.7542 21.9139 47.0825C21.9101 47.4108 21.7779 47.724 21.5466 47.9533C21.3152 48.1827 21.0036 48.3093 20.6803 48.3054H20.6429C19.0541 48.265 17.5051 47.7917 16.1582 46.935C14.8113 46.0783 13.7161 44.8697 12.9871 43.4358C12.2581 42.0018 11.9223 40.3952 12.0147 38.7843C12.1071 37.1733 12.6244 35.6172 13.5123 34.2788C14.4003 32.9405 15.6264 31.8691 17.0621 31.177C18.4978 30.4848 20.0904 30.1972 21.6731 30.3444C23.2558 30.4916 24.7705 31.0682 26.0584 32.0137C27.3464 32.9591 28.3603 34.2388 28.9941 35.7187C29.1234 36.0196 29.1297 36.3603 29.0116 36.6659C28.8935 36.9716 28.6606 37.217 28.3642 37.3483C28.0679 37.4796 27.7323 37.486 27.4313 37.3661C27.1303 37.2462 26.8885 37.0098 26.7592 36.7088C26.2999 35.636 25.5649 34.7082 24.6313 34.0227C23.6976 33.3371 22.5997 32.9191 21.4523 32.8122C20.3049 32.7053 19.1503 32.9136 18.1094 33.4152C17.0685 33.9169 16.1796 34.6934 15.5357 35.6635C14.8918 36.6336 14.5166 37.7617 14.4494 38.9295C14.3822 40.0974 14.6255 41.2621 15.1537 42.3018C15.682 43.3414 16.4758 44.2178 17.4521 44.8391C18.4284 45.4603 19.5512 45.8037 20.703 45.8332L20.7095 45.8299Z" fill="#4E95FF"/>
<path d="M2.06651 6.13578C3.24671 4.251 4.87739 2.70003 6.80676 1.62722C8.73611 0.554415 10.9014 -0.00534663 13.1012 3.84906e-05H28.5016C30.7001 0.000406741 32.8631 0.562821 34.7912 1.63541C36.7193 2.70801 38.3503 4.25625 39.5339 6.13736C40.7175 8.01847 41.4156 10.1719 41.5637 12.399C41.7118 14.6261 41.3052 16.8553 40.3815 18.8809L36.2709 27.8897C37.2055 29.1903 37.978 30.6032 38.5708 32.0963C38.6833 32.3993 38.6743 32.735 38.5459 33.0314C38.4174 33.3278 38.1797 33.5612 37.8837 33.6817C37.5877 33.8022 37.2569 33.8001 36.9624 33.6759C36.6679 33.5516 36.4331 33.3152 36.3083 33.0172C35.7227 31.5389 34.936 30.1513 33.971 28.8948C33.9576 28.879 33.9451 28.8625 33.9336 28.8453C32.8549 27.4487 31.5645 26.2349 30.1107 25.2493C30.101 25.2493 30.0961 25.2361 30.0863 25.2328C28.2335 23.9924 26.1551 23.141 23.9733 22.7285C21.7915 22.3161 19.5504 22.351 17.3821 22.8313C15.2138 23.3115 13.1621 24.2274 11.3476 25.5249C9.53323 26.8224 7.99283 28.4754 6.81713 30.3865C5.64143 32.2977 4.8542 34.4283 4.50179 36.653C4.14938 38.8777 4.23891 41.1515 4.76511 43.3406C5.29131 45.5296 6.24353 47.5897 7.56573 49.3994C8.88793 51.2091 10.5534 52.732 12.464 53.8783H20.8054C21.1287 53.8783 21.4388 54.0087 21.6674 54.2409C21.896 54.473 22.0245 54.7878 22.0245 55.1161C22.0245 55.4443 21.896 55.7591 21.6674 55.9912C21.4388 56.2234 21.1287 56.3538 20.8054 56.3538H12.1438C11.9343 56.3519 11.7288 56.2951 11.5473 56.1887C9.20531 54.8608 7.16652 53.0448 5.56483 50.86C3.96316 48.6752 2.83482 46.1712 2.25395 43.5122C1.67309 40.8533 1.65282 38.0996 2.1945 35.4322C2.73618 32.7647 3.82754 30.2438 5.3969 28.035L1.21968 18.8792C0.290916 16.855 -0.118484 14.625 0.0295792 12.397C0.177635 10.1689 0.878342 8.01503 2.06651 6.13578ZM3.43182 17.8396L7.12142 25.9259C7.85555 25.1525 8.65145 24.4421 9.50097 23.802L6.19008 16.5408C5.65251 15.3627 5.41589 14.0661 5.50203 12.7707C5.58818 11.4752 5.99432 10.2227 6.68298 9.12866C7.37164 8.03463 8.32062 7.13435 9.44234 6.5109C10.5641 5.88746 11.8224 5.56094 13.1012 5.56148H14.629C14.9523 5.56148 15.2624 5.69188 15.491 5.924C15.7196 6.15611 15.8481 6.47093 15.8481 6.79919C15.8481 7.12745 15.7196 7.44226 15.491 7.67438C15.2624 7.9065 14.9523 8.0369 14.629 8.0369H13.106C12.2364 8.03615 11.3805 8.25794 10.6175 8.6818C9.85458 9.10565 9.20914 9.71789 8.74083 10.462C8.27251 11.206 7.99644 12.0579 7.93811 12.939C7.87978 13.82 8.04107 14.7017 8.40709 15.5028L11.5603 22.4257C14.3841 20.8153 17.5657 19.9625 20.8045 19.9478C24.0432 19.933 27.2322 20.7569 30.0701 22.3415L33.1908 15.5028C33.5568 14.7019 33.7181 13.8203 33.6598 12.9394C33.6015 12.0585 33.3256 11.2067 32.8575 10.4627C32.3894 9.71863 31.7441 9.10636 30.9814 8.68239C30.2187 8.25842 29.363 8.03642 28.4935 8.0369H18.2682C17.9449 8.0369 17.6349 7.9065 17.4063 7.67438C17.1776 7.44226 17.0492 7.12745 17.0492 6.79919C17.0492 6.47093 17.1776 6.15611 17.4063 5.924C17.6349 5.69188 17.9449 5.56148 18.2682 5.56148H28.5016C29.7804 5.56182 31.0385 5.88907 32.1599 6.51303C33.2813 7.13699 34.2299 8.03759 34.9183 9.13177C35.6067 10.226 36.0127 11.4785 36.0988 12.7739C36.1849 14.0693 35.9484 15.3659 35.4111 16.5441L32.1506 23.6881C33.003 24.3217 33.8017 25.0266 34.5382 25.7955L38.1677 17.8379C38.9204 16.1897 39.2521 14.3755 39.1321 12.5628C39.0121 10.75 38.4443 8.99722 37.4811 7.46608C36.5179 5.93494 35.1904 4.67482 33.621 3.80202C32.0516 2.92921 30.291 2.47185 28.5016 2.47216H13.1012C11.3119 2.47186 9.55134 2.92911 7.98196 3.80171C6.41259 4.6743 5.08494 5.93415 4.1215 7.46501C3.15806 8.99587 2.58985 10.7484 2.46931 12.561C2.34879 14.3736 2.6798 16.1878 3.43182 17.8363V17.8396Z" fill="#4E95FF"/>
</svg>
