<svg width="72" height="66" viewBox="0 0 72 66" fill="none" xmlns="http://www.w3.org/2000/svg">
<path d="M67.4066 32.3708V9.90867C67.4066 4.44493 62.9283 0 57.4238 0H14.2892C8.78456 0 4.30636 4.44507 4.30636 9.90867V32.6605C1.64011 35.4273 0 39.176 0 43.2978V60.3298C0 63.4563 2.56261 66 5.71261 66C8.86247 66 11.4251 63.4563 11.4251 60.3298V58.5708H60.5751V60.3298C60.5751 63.4563 63.1377 66 66.2875 66C69.4374 66 72 63.4564 72 60.3298V43.2978C72 39.0302 70.2416 35.1627 67.4066 32.3708ZM14.2892 2.79161H57.4238C61.3776 2.79161 64.5941 5.98437 64.5941 9.90867V30.1739C63.7328 29.6476 62.8162 29.2023 61.8549 28.8492V24.2076C61.8549 20.0927 58.4821 16.745 54.3365 16.745H42.1123C39.5956 16.745 37.3655 17.9799 36.0001 19.87C34.6348 17.9799 32.4046 16.745 29.888 16.745H17.6638C13.5181 16.745 10.1454 20.0926 10.1454 24.2076V28.8492C9.0765 29.2418 8.06273 29.7482 7.119 30.3534V9.90867C7.11886 5.98437 10.3354 2.79161 14.2892 2.79161ZM15.5156 27.8975C14.6444 27.8975 13.79 27.9704 12.9576 28.108V24.2076C12.9576 21.632 15.0687 19.5366 17.6635 19.5366H29.8877C32.4825 19.5366 34.5936 21.632 34.5936 24.2076V27.8976H15.5156V27.8975ZM37.4062 24.2074C37.4062 21.6319 39.5173 19.5365 42.1121 19.5365H54.3364C56.9312 19.5365 59.0422 21.6319 59.0422 24.2074V28.1078C58.2097 27.9702 57.3554 27.8974 56.4843 27.8974H37.4062V24.2074ZM15.5156 30.6891H56.4843C63.4888 30.6891 69.1874 36.3453 69.1874 43.2978V47.4387H55.0832C54.3066 47.4387 53.677 48.0638 53.677 48.8345C53.677 49.6053 54.3066 50.2304 55.0832 50.2304H69.1875V55.7794H2.8125V50.2304H41.0207C41.7974 50.2304 42.427 49.6053 42.427 48.8345C42.427 48.0638 41.7974 47.4387 41.0207 47.4387H2.8125V43.2978C2.8125 36.3453 8.51105 30.6891 15.5156 30.6891ZM8.61258 60.3298C8.61258 61.917 7.31166 63.2084 5.71261 63.2084C4.11356 63.2084 2.8125 61.917 2.8125 60.3298V58.5708H8.61258V60.3298ZM66.2874 63.2084C64.6883 63.2084 63.3874 61.917 63.3874 60.3298V58.5708H69.1875V60.3298C69.1875 61.917 67.8866 63.2084 66.2874 63.2084Z" fill="#4E95FF"/>
<path d="M48.0513 50.2311C48.8283 50.2311 49.4582 49.6058 49.4582 48.8345C49.4582 48.0633 48.8283 47.438 48.0513 47.438C47.2742 47.438 46.6443 48.0633 46.6443 48.8345C46.6443 49.6058 47.2742 50.2311 48.0513 50.2311Z" fill="#4E95FF"/>
</svg>
