<svg width="72" height="70" viewBox="0 0 72 70" fill="none" xmlns="http://www.w3.org/2000/svg">
<path d="M35.8436 5.90775C35.0669 5.90775 34.4373 6.53863 34.4373 7.3169V17.6298C34.4373 18.4081 35.0669 19.039 35.8436 19.039C36.6201 19.039 37.2498 18.4081 37.2498 17.6298V7.3169C37.2498 6.53863 36.6201 5.90775 35.8436 5.90775Z" fill="#4E95FF"/>
<path d="M36.8381 0.412884C36.5765 0.15078 36.2137 0 35.8438 0C35.4726 0 35.1112 0.15078 34.8496 0.412884C34.5881 0.674987 34.4376 1.03855 34.4376 1.40916C34.4376 1.77977 34.5881 2.14333 34.8496 2.40543C35.1112 2.66754 35.4726 2.81832 35.8438 2.81832C36.2137 2.81832 36.5765 2.66754 36.8381 2.40543C37.0996 2.14333 37.2501 1.77977 37.2501 1.40916C37.2501 1.03855 37.0995 0.674987 36.8381 0.412884Z" fill="#4E95FF"/>
<path d="M40.8816 23.4301V20.5522C40.8816 18.1638 38.9426 16.2207 36.5591 16.2207H35.1281C32.7447 16.2207 30.8056 18.1638 30.8056 20.5522V23.4301C27.7363 24.1216 24.8979 25.4312 22.4272 27.2203C22.3315 27.2743 22.2429 27.3401 22.1619 27.415C16.5375 31.6114 12.8873 38.3232 12.8873 45.8743C12.8873 53.4261 16.5381 60.1394 22.1635 64.336C22.2417 64.4081 22.3277 64.4707 22.4197 64.5233C26.1974 67.2616 30.8354 68.8781 35.8436 68.8781C48.5018 68.8781 58.7999 58.5587 58.7999 45.8743C58.7999 34.924 51.1243 25.7373 40.8816 23.4301ZM20.6987 32.5805C20.347 34.3395 20.0661 36.1096 19.8554 37.8862C19.8022 37.8971 19.7491 37.9071 19.6959 37.9179L17.1118 38.4496C17.9692 36.2851 19.1904 34.3037 20.6987 32.5805ZM16.2049 50.3741C15.8747 48.9266 15.6998 47.4206 15.6998 45.8743C15.6998 44.3781 15.8645 42.92 16.1741 41.5158C16.1993 41.512 16.2245 41.5093 16.2498 41.5041L19.5732 40.8202C19.3191 44.2219 19.3219 47.6384 19.5815 51.0399L16.2391 50.3791C16.2277 50.3769 16.2163 50.376 16.2049 50.3741ZM17.1674 53.4353L19.7065 53.9372C19.7605 53.948 19.8145 53.9577 19.8685 53.9682C20.0777 55.7094 20.3539 57.4441 20.6987 59.1683C19.2223 57.4813 18.0218 55.5466 17.1674 53.4353ZM24.3434 29.3115C26.0637 28.1084 27.9792 27.1675 30.032 26.5464C29.355 29.8682 28.8548 33.2275 28.5332 36.603C26.605 36.7813 24.6788 37.0293 22.7566 37.3489C23.1141 34.6463 23.6443 31.9617 24.3434 29.3115ZM22.4388 40.2636C24.3903 39.9191 26.3461 39.6501 28.3044 39.4564C28.1749 41.442 28.105 43.4307 28.0997 45.4187C28.0936 47.7299 28.1734 50.0428 28.3351 52.3504C26.3692 52.1647 24.4059 51.9059 22.447 51.5741C22.1159 47.8116 22.113 44.0265 22.4388 40.2636ZM24.3434 62.4371C23.6516 59.8144 23.1249 57.1582 22.7676 54.4837C24.7012 54.7925 26.6387 55.0317 28.5785 55.2031C28.9154 58.5689 29.4284 61.9179 30.1189 65.228C28.0332 64.6075 26.0879 63.6572 24.3434 62.4371ZM54.5754 38.4496L51.9913 37.9179C51.8472 37.8882 51.7027 37.8606 51.5586 37.8317C51.3332 35.9437 51.0277 34.0635 50.643 32.1959C52.3108 34.0065 53.6535 36.1221 54.5754 38.4496ZM47.0185 29.0881C47.7433 31.7965 48.291 34.5414 48.6586 37.3054C46.7381 36.9928 44.8139 36.7496 42.8875 36.578C42.563 33.184 42.0561 29.8002 41.373 26.4622C43.4033 27.0439 45.3033 27.9378 47.0185 29.0881ZM33.6181 20.5522C33.6181 19.7178 34.2955 19.039 35.1281 19.039H36.5591C37.3918 19.039 38.0691 19.7178 38.0691 20.5522V22.979C37.3366 22.908 36.5944 22.8705 35.8436 22.8705C35.0928 22.8705 34.3506 22.908 33.6181 22.979V20.5522ZM33.046 25.8844C33.9607 25.7566 34.8943 25.6888 35.8436 25.6888C36.6985 25.6888 37.5408 25.7429 38.368 25.8469C39.1251 29.3147 39.6839 32.8389 40.0404 36.3763C37.1568 36.2234 34.2704 36.2289 31.3869 36.3912C31.7382 32.8572 32.2923 29.3464 33.046 25.8844ZM38.2811 65.8931L38.2769 65.9123C37.4789 66.0089 36.6671 66.06 35.8436 66.06C34.9255 66.0598 34.022 65.9967 33.136 65.8769C32.3676 62.4278 31.8014 58.9285 31.434 55.4053C32.9034 55.4839 34.3734 55.5248 35.8436 55.5248C37.2274 55.5248 38.6111 55.4893 39.9942 55.4197C39.6221 58.94 39.0494 62.4477 38.2811 65.8931ZM47.0185 62.6605C45.2783 63.8276 43.3476 64.7306 41.2837 65.3113C41.9801 61.9868 42.5018 58.6116 42.8421 55.2268C44.7799 55.0619 46.7155 54.8276 48.6472 54.5257C48.2798 57.2617 47.7361 59.9792 47.0185 62.6605ZM48.9696 51.619C47.0119 51.9439 45.0501 52.1958 43.0855 52.3749C43.111 52.0123 43.135 51.6496 43.1563 51.2872C43.2021 50.5102 42.6106 49.8434 41.8352 49.7976C41.0573 49.7515 40.3944 50.3446 40.3488 51.1215C40.3201 51.6085 40.2865 52.0955 40.2501 52.5826C37.2286 52.75 34.2036 52.7455 31.1825 52.5685C30.8559 48.1312 30.8447 43.6674 31.1498 39.2282C34.1928 39.0412 37.2395 39.0367 40.2826 39.2135C40.3214 39.768 40.3563 40.3225 40.385 40.877C40.4238 41.6294 41.0448 42.2133 41.7881 42.2133C41.8127 42.2133 41.8375 42.2126 41.8621 42.2114C42.6378 42.1711 43.2339 41.5083 43.1937 40.7312C43.1713 40.2979 43.1447 39.8644 43.1165 39.4309C45.0733 39.6175 47.0277 39.8795 48.9776 40.2167C49.3089 44.01 49.3061 47.8261 48.9696 51.619ZM50.6428 59.5529C51.0206 57.7194 51.3214 55.8737 51.5455 54.0205C51.6905 53.9926 51.8356 53.9659 51.9805 53.9372L54.5197 53.4353C53.5998 55.709 52.278 57.7776 50.6428 59.5529ZM55.448 50.3791L51.8351 51.0933C52.1003 47.6558 52.1028 44.2025 51.8432 40.7646L55.4372 41.5041C55.4625 41.5093 55.4877 41.512 55.513 41.5158C55.8226 42.92 55.9873 44.3782 55.9873 45.8745C55.9873 47.4207 55.8124 48.9267 55.4822 50.3742C55.4708 50.376 55.4594 50.3769 55.448 50.3791Z" fill="#4E95FF"/>
<path d="M42.8116 44.8774C42.5502 44.6153 42.1874 44.4645 41.8176 44.4645C41.4477 44.4645 41.0849 44.6153 40.8233 44.8774C40.5616 45.1395 40.4113 45.5031 40.4113 45.8751C40.4113 46.2457 40.5618 46.6078 40.8233 46.8713C41.0849 47.1335 41.4477 47.2828 41.8176 47.2828C42.1874 47.2828 42.5502 47.1335 42.8116 46.8713C43.0733 46.6078 43.2238 46.2457 43.2238 45.8751C43.2238 45.5031 43.0732 45.1409 42.8116 44.8774Z" fill="#4E95FF"/>
<path d="M12.6238 61.6299C10.4475 61.0538 8.75601 59.3366 8.2094 57.1486C8.05275 56.5215 7.49039 56.0816 6.8452 56.0816C6.20001 56.0816 5.63766 56.5215 5.481 57.1486C4.93439 59.3366 3.24295 61.0537 1.06552 61.6302C0.438187 61.7967 0 62.3674 0 63.0178C0 63.6681 0.438187 64.2388 1.06552 64.4055C1.06594 64.4056 1.06622 64.4056 1.06664 64.4058C3.24281 64.9818 4.93439 66.699 5.481 68.887C5.6378 69.5141 6.20015 69.9541 6.8452 69.9541C7.49025 69.9541 8.05275 69.5141 8.2094 68.887C8.75587 66.6989 10.4475 64.9818 12.6249 64.4054C13.2531 64.2385 13.6911 63.6672 13.6904 63.0161C13.6897 62.3649 13.2501 61.7946 12.6238 61.6299ZM6.8452 65.2125C6.24755 64.36 5.50589 63.6168 4.65469 63.0178C5.50589 62.4187 6.2474 61.6755 6.8452 60.823C7.44286 61.6754 8.18451 62.4184 9.03586 63.0176C8.18451 63.6168 7.443 64.36 6.8452 65.2125Z" fill="#4E95FF"/>
<path d="M24.4173 18.7697C24.3932 18.7188 24.3674 18.6694 24.3412 18.6202C24.3292 18.5893 24.3176 18.5583 24.3032 18.5279L19.4234 8.19539C19.2555 7.83986 18.9468 7.57071 18.5721 7.45332C18.1973 7.33594 17.7906 7.38075 17.4504 7.57705L6.74564 13.7538C6.11058 14.1203 5.86279 14.914 6.17625 15.5777L9.17789 21.9334C8.48067 21.9849 7.77361 22.1714 7.10451 22.4886C5.98809 23.0182 5.04745 23.8651 4.45584 24.8735C3.7627 26.0551 3.64936 27.3343 4.14478 28.3833C4.6402 29.4323 5.69939 30.1554 7.05065 30.3675C7.33387 30.412 7.62272 30.434 7.91423 30.434C8.80959 30.434 9.72815 30.2266 10.5704 29.8272C11.6934 29.2947 12.6025 28.4474 13.1303 27.4415C13.7192 26.3193 13.7766 25.0822 13.2879 24.0474C13.2644 23.9976 13.2386 23.9489 13.2127 23.9005C13.2005 23.8688 13.1884 23.8369 13.1737 23.8058L9.27351 15.5473L17.5331 10.7815L20.304 16.6485C19.6245 16.7015 18.9209 16.885 18.234 17.2108C17.1174 17.7402 16.1768 18.5872 15.5853 19.5956C14.8922 20.7772 14.7788 22.0564 15.2743 23.1054C15.8947 24.4189 17.3884 25.1533 19.0642 25.1533C19.926 25.1533 20.8361 24.959 21.7 24.5494C24.1954 23.3661 25.3889 20.8274 24.4173 18.7697ZM9.57164 24.7364C9.72084 24.7364 9.8654 24.7502 10.0022 24.7784C10.217 24.8225 10.599 24.943 10.7454 25.2533C10.8921 25.5633 10.7429 25.9357 10.6408 26.1302C10.3985 26.592 9.93431 27.011 9.36717 27.2799C8.77317 27.5616 8.0699 27.6752 7.48575 27.5834C7.08736 27.5209 6.77376 27.3618 6.68686 27.1779C6.60009 26.9941 6.67603 26.6503 6.88036 26.3018C7.17989 25.791 7.71342 25.3179 8.30742 25.0362C8.7224 24.8394 9.16453 24.7364 9.57164 24.7364ZM20.4967 22.0022C19.3096 22.5653 18.0254 22.3432 17.8163 21.9002C17.7296 21.7164 17.8055 21.3724 18.0098 21.0241C18.3094 20.5133 18.8429 20.0404 19.4369 19.7587C19.8769 19.55 20.3174 19.4588 20.7029 19.4588C21.2744 19.4588 21.7256 19.6593 21.8748 19.9755C22.1251 20.505 21.5889 21.4842 20.4967 22.0022Z" fill="#4E95FF"/>
<path d="M63.1722 16.6613C60.9957 16.0852 59.3043 14.368 58.7575 12.18C58.601 11.5528 58.0385 11.113 57.3935 11.113C56.7483 11.113 56.1859 11.553 56.0292 12.18C55.4828 14.3682 53.7913 16.0852 51.6163 16.661C50.9874 16.8269 50.5482 17.3977 50.5482 18.0493C50.5482 18.7005 50.9869 19.2711 51.6149 19.4374C53.7913 20.0134 55.4828 21.7306 56.0292 23.9186C56.1859 24.5457 56.7483 24.9856 57.3935 24.9856C58.0385 24.9856 58.601 24.5457 58.7575 23.9185C59.3043 21.7305 60.9957 20.0133 63.1707 19.4375C63.7988 19.2719 64.2379 18.7018 64.2387 18.051C64.2395 17.4003 63.8019 16.829 63.1722 16.6613ZM57.3935 20.244C56.7958 19.3916 56.0544 18.6484 55.2031 18.0493C56.0541 17.4503 56.7958 16.7072 57.3935 15.8546C57.9912 16.7072 58.7326 17.4503 59.5838 18.0493C58.7326 18.6485 57.9912 19.3916 57.3935 20.244Z" fill="#4E95FF"/>
<path d="M70.6523 54.7614C67.9767 54.6495 64.4953 53.1637 64.4611 53.1489C64.056 52.9741 63.5928 52.9998 63.2098 53.2183C62.8265 53.4367 62.5677 53.8226 62.5105 54.2605L61.4456 62.4246C60.8182 62.0763 60.0906 61.8322 59.2947 61.728C58.0398 61.5634 56.7608 61.7704 55.6936 62.3101C54.4472 62.9405 53.6447 63.9744 53.4917 65.1467C53.3387 66.319 53.8491 67.525 54.892 68.4553C55.7851 69.2517 56.9681 69.781 58.2229 69.9453C58.5037 69.9821 58.7806 70 59.052 70C61.488 70 63.4812 68.5638 63.7518 66.4909V66.4908C63.7548 66.4681 63.756 66.4457 63.7586 66.4231C63.7608 66.4088 63.7643 66.3948 63.7662 66.3803L65.0692 56.3913C66.5124 56.8879 68.6344 57.4979 70.5351 57.5774C71.3129 57.608 71.9664 57.0057 71.9988 56.2283C72.0311 55.4504 71.4282 54.7938 70.6523 54.7614ZM60.9628 66.1254C60.8818 66.7457 59.8486 67.316 58.5872 67.1508C57.9063 67.0616 57.224 66.7623 56.7619 66.3501C56.4355 66.0589 56.2509 65.7377 56.2804 65.512C56.3098 65.2862 56.5705 65.0236 56.9607 64.8261C57.3891 64.6095 57.9278 64.4927 58.4657 64.4927C58.6214 64.4927 58.7772 64.5025 58.9302 64.5225C60.1916 64.6878 61.0437 65.5049 60.9628 66.1254Z" fill="#4E95FF"/>
</svg>
