<svg width="64" height="58" viewBox="0 0 64 58" fill="none" xmlns="http://www.w3.org/2000/svg">
<path d="M1.25775 39.1804C1.94811 39.1804 2.50775 38.6118 2.50775 37.9104C2.50775 37.209 1.94811 36.6405 1.25775 36.6405C0.567394 36.6405 0.00775 37.209 0.00775 37.9104C0.00775 38.6118 0.567394 39.1804 1.25775 39.1804Z" fill="#4E95FF"/>
<path d="M32.4116 9.23578C30.6599 4.78273 26.4789 1.90555 21.76 1.90555C20.6361 1.90555 19.5214 2.07623 18.4411 2.40933C16.5074 0.899246 14.0886 2.31443e-09 11.4667 2.31443e-09C5.144 -0.000126992 0 5.22594 0 11.6497V32.1604C0 32.856 0.573 33.4383 1.25787 33.4383C1.94262 33.4383 2.51575 32.8562 2.51575 32.1604V29.4819H20.4182V46.3502C20.4182 51.3647 16.4027 55.4442 11.467 55.4442C6.53125 55.4442 2.51575 51.3647 2.51575 46.3502V43.7038C2.51575 43.0081 1.94275 42.4258 1.25787 42.4258C0.573 42.4259 0 43.0081 0 43.7038V46.3502C0 52.7739 5.144 58 11.4669 58C17.3284 58 22.1761 53.5085 22.8524 47.7353L23.7851 50.1052C25.5759 54.6576 29.8935 57.433 34.4479 57.4328C35.8611 57.4328 37.2972 57.1655 38.6876 56.6013C44.5592 54.2179 47.4276 47.4258 45.0819 41.4612L32.4116 9.23578ZM30.0756 10.1839L35.6535 24.3709L22.9337 29.5335V11.6497C22.9337 8.97836 22.0436 6.51467 20.5496 4.54728C20.9505 4.49115 21.3545 4.46118 21.7601 4.46118C25.444 4.4613 28.7081 6.7077 30.0756 10.1839ZM2.51562 26.9262V11.6497C2.51562 6.63519 6.53112 2.55563 11.4669 2.55563C16.4026 2.55563 20.4181 6.63519 20.4181 11.6497V26.9262H2.51562ZM37.7541 54.2279C33.1712 56.0881 27.9527 53.8133 26.1209 49.1564L22.95 41.0997C22.9451 41.0873 22.9389 41.0759 22.9336 41.0637V32.2855L36.5866 26.7442L42.7456 42.4091C44.5769 47.0656 42.3376 52.3674 37.7541 54.2279Z" fill="#4E95FF"/>
<path d="M58.8314 17.028C58.5004 16.8409 58.158 16.6732 57.8074 16.525C58.0866 15.589 58.2382 14.5973 58.2382 13.57C58.2382 7.94196 53.7314 3.36331 48.1917 3.36331C42.6521 3.36331 38.1452 7.94196 38.1452 13.57C38.1452 17.8118 40.706 21.4565 44.3391 22.9951C42.9721 27.5467 44.8987 32.5186 49.0792 34.8767C50.6197 35.7447 52.2891 36.1566 53.9374 36.1565C57.4722 36.1562 60.9066 34.2603 62.7399 30.9047C65.4275 25.9839 63.6739 19.7586 58.8314 17.028ZM57.6096 19.2621C60.865 21.0978 62.2564 25.0389 61.0574 28.4932L51.6716 23.1448C53.811 22.3397 55.6096 20.8151 56.7802 18.8609C57.0644 18.9783 57.3421 19.111 57.6096 19.2621ZM48.1917 5.91907C51.9155 5.91907 55.0149 8.6798 55.6155 12.2921H40.768C41.3686 8.6798 44.468 5.91907 48.1917 5.91907ZM40.768 14.8479H55.6156C55.015 18.4602 51.9156 21.2211 48.1919 21.2211C44.4681 21.2211 41.3686 18.4602 40.768 14.8479ZM50.2999 32.6421C47.1461 30.8633 45.7031 27.1004 46.7662 23.6723C47.051 23.7136 47.3394 23.7438 47.6312 23.7602C47.6732 23.7917 59.837 30.7283 59.837 30.7283C57.5866 33.5911 53.5569 34.4775 50.2999 32.6421Z" fill="#4E95FF"/>
</svg>
