<svg width="72" height="72" viewBox="0 0 72 72" fill="none" xmlns="http://www.w3.org/2000/svg">
<path d="M36 16.0312C24.9892 16.0312 16.0312 24.9892 16.0312 36C16.0312 47.0108 24.9892 55.9688 36 55.9688C47.0108 55.9688 55.9688 47.0108 55.9688 36C55.9688 24.9892 47.0108 16.0312 36 16.0312ZM36 53.1562C26.54 53.1562 18.8438 45.46 18.8438 36C18.8438 26.54 26.54 18.8438 36 18.8438C45.46 18.8438 53.1562 26.54 53.1562 36C53.1562 45.46 45.46 53.1562 36 53.1562Z" fill="#4E95FF"/>
<path d="M71.2534 0.16425C70.794 -0.0795936 70.2374 -0.050203 69.8064 0.240891C62.9028 4.90556 58.7812 12.6647 58.7812 20.9966V39.243C58.7812 41.2 59.5434 43.04 60.9272 44.4239L63.5625 47.0592V67.7812C63.5625 70.1075 65.455 72 67.7812 72C70.1075 72 72 70.1075 72 67.7812V1.40625C72 0.886078 71.7128 0.408375 71.2534 0.16425ZM69.1875 67.7812C69.1875 68.5567 68.5567 69.1875 67.7812 69.1875C67.0058 69.1875 66.375 68.5567 66.375 67.7812V46.4766C66.375 46.1036 66.2268 45.746 65.9631 45.4822L62.9159 42.435C62.0633 41.5824 61.5938 40.4488 61.5938 39.243V20.9966C61.5938 14.5306 64.3895 8.45367 69.1875 4.26052V67.7812Z" fill="#4E95FF"/>
<path d="M32.7738 24.8475C32.4689 24.1332 31.6423 23.8015 30.9282 24.1062C26.1564 26.1433 23.073 30.8119 23.073 36C23.073 36.7765 23.7026 37.4062 24.4793 37.4062C25.256 37.4062 25.8855 36.7765 25.8855 36C25.8855 31.9403 28.2984 28.287 32.0325 26.693C32.7468 26.3881 33.0787 25.5618 32.7738 24.8475Z" fill="#4E95FF"/>
<path d="M36 23.073L35.929 23.0732C35.1523 23.0784 34.527 23.7122 34.5322 24.4889C34.5374 25.2623 35.166 25.8857 35.9383 25.8857C35.9414 25.8857 35.9447 25.8857 35.9478 25.8857L36 25.8855C36.7767 25.8855 37.4062 25.256 37.4062 24.4793C37.4062 23.7026 36.7767 23.073 36 23.073Z" fill="#4E95FF"/>
<path d="M55.4939 17.5049C53.0093 14.887 50.0806 12.8271 46.7893 11.3826C43.3811 9.88692 39.751 9.12853 36 9.12853C31.7138 9.12853 27.6165 10.1081 23.8222 12.0403C23.1301 12.3927 22.8547 13.2394 23.2071 13.9316C23.5596 14.6235 24.4063 14.8988 25.0985 14.5465C28.4937 12.8177 32.1615 11.941 36 11.941C42.6651 11.941 48.8637 14.6045 53.4538 19.441C53.7303 19.7324 54.1018 19.8792 54.474 19.8792C54.8217 19.8792 55.1699 19.7511 55.4418 19.4929C56.0052 18.9582 56.0284 18.0682 55.4939 17.5049Z" fill="#4E95FF"/>
<path d="M56.859 50.6783C56.2497 50.1968 55.3655 50.3002 54.8838 50.9093C50.2864 56.7242 43.4035 60.059 36 60.059C31.3664 60.059 26.8682 58.7393 22.9918 56.2427C22.339 55.8221 21.4685 56.0107 21.048 56.6634C20.6276 57.3165 20.816 58.1867 21.4689 58.6072C25.8005 61.3969 30.8253 62.8713 36 62.8713C44.2687 62.8713 51.9557 59.1472 57.09 52.6535C57.5716 52.0445 57.4684 51.1601 56.859 50.6783Z" fill="#4E95FF"/>
<path d="M19.1191 53.1456L19.0984 53.1218C19.091 53.1127 19.0835 53.1034 19.0758 53.0944C18.5756 52.5001 17.6885 52.4242 17.0944 52.9242C16.5002 53.4246 16.424 54.3115 16.9244 54.9058L16.938 54.9219L16.9387 54.9214C16.9536 54.9402 16.9691 54.9591 16.9851 54.9776C17.2633 55.3016 17.6567 55.4678 18.0527 55.4678C18.377 55.4678 18.7028 55.3563 18.9681 55.1287C19.5573 54.6227 19.6249 53.7349 19.1191 53.1456Z" fill="#4E95FF"/>
<path d="M17.4375 1.66104e-07C16.6608 1.66104e-07 16.0312 0.629578 16.0312 1.40625V16.5938H13.4989C13.499 16.5859 13.5 16.5783 13.5 16.5703V1.40625C13.5 0.629578 12.8704 1.66104e-07 12.0938 1.66104e-07C11.3171 1.66104e-07 10.6875 0.629578 10.6875 1.40625V16.5703C10.6875 16.5781 10.6886 16.5859 10.6886 16.5938H8.15512C8.15527 16.5859 8.15625 16.5783 8.15625 16.5703V1.40625C8.15625 0.629578 7.52667 1.66104e-07 6.75 1.66104e-07C5.97333 1.66104e-07 5.34375 0.629578 5.34375 1.40625V16.5703C5.34375 16.5781 5.34487 16.5859 5.34487 16.5938H2.8125V1.40625C2.8125 0.629578 2.18292 1.66104e-07 1.40625 1.66104e-07C0.629578 1.66104e-07 0 0.629578 0 1.40625V18.5625C0 22.012 2.09306 25.1253 5.20312 26.4711V67.7812C5.20312 70.1075 7.09566 72 9.42188 72C11.7481 72 13.6406 70.1075 13.6406 67.7812V26.4711C16.7507 25.1253 18.8438 22.012 18.8438 18.5625V1.40625C18.8438 0.629578 18.2142 1.66104e-07 17.4375 1.66104e-07ZM11.844 24.1341C11.2424 24.3079 10.8281 24.8587 10.8281 25.485V67.7812C10.8281 68.5567 10.1973 69.1875 9.42188 69.1875C8.64647 69.1875 8.01562 68.5567 8.01562 67.7812V25.485C8.01562 24.8587 7.60148 24.3079 6.99975 24.1341C4.80839 23.5008 3.20555 21.6198 2.87606 19.4062H15.9675C15.6382 21.6198 14.0354 23.5008 11.844 24.1341Z" fill="#4E95FF"/>
</svg>
