<svg width="64" height="64" viewBox="0 0 64 64" fill="none" xmlns="http://www.w3.org/2000/svg">
<path d="M25.8609 32.5529C25.6272 32.3204 25.3059 32.1866 24.976 32.1866C24.6473 32.1866 24.3249 32.3204 24.0924 32.5529C23.8599 32.7855 23.7274 33.1081 23.7274 33.4368C23.7274 33.7656 23.8599 34.0882 24.0924 34.3207C24.3262 34.5533 24.6474 34.6871 24.976 34.6871C25.306 34.6871 25.6272 34.5533 25.8609 34.3207C26.0934 34.0882 26.2259 33.7656 26.2259 33.4368C26.2259 33.1081 26.0934 32.7854 25.8609 32.5529Z" fill="#4E95FF"/>
<path d="M60.5015 23.4945C59.4474 22.4748 58.2287 21.6816 56.9082 21.1367C56.0509 15.9025 53.6133 11.1509 49.8487 7.385C40.0047 -2.46167 23.9877 -2.46167 14.1438 7.385C11.0257 10.504 8.7906 14.3587 7.63947 18.5828C6.92798 18.5554 6.21273 18.734 5.57311 19.1171C4.43123 19.8009 3.74961 21.0039 3.74961 22.3352V32.2041C2.86787 32.5908 2.24974 33.4712 2.24974 34.4943V40.0079C0.988371 40.1339 0 41.2015 0 42.4959V60.2491C0 62.3173 1.68199 63.9999 3.74961 63.9999H15.2483C17.3158 63.9999 18.9979 62.3174 18.9979 60.2491V46.9012C21.8443 48.6178 24.9727 49.7384 28.2469 50.2227V56.4907H27.6432C24.193 56.4907 21.3861 59.2985 21.3861 62.7496C21.3861 63.4401 21.9457 63.9999 22.6359 63.9999H41.357C42.0472 63.9999 42.6068 63.4401 42.6068 62.7496C42.6068 59.2985 39.7999 56.4907 36.3498 56.4907H35.7464V50.2218C39.2367 49.7055 42.5529 48.4697 45.534 46.5676V59.0603C45.534 61.7841 47.7492 64 50.4722 64H54.1593C56.8823 64 59.0975 61.7841 59.0975 59.0603V44.3351L62.8134 36.7921C65.0205 32.3111 64.0917 26.9673 60.5015 23.4945ZM6.24935 22.3353C6.24935 21.6957 6.67448 21.3721 6.8571 21.2626C7.03985 21.1531 7.52572 20.931 8.08935 21.2332L12.0888 23.3769C12.4957 23.5949 12.7483 24.0172 12.7483 24.4788V31.9938H6.24935V22.3353ZM4.74961 34.4945H14.2486V39.9955H4.74961V34.4945ZM16.4982 60.2493C16.4982 60.9386 15.9376 61.4995 15.2483 61.4995H3.74961C3.06049 61.4995 2.49974 60.9387 2.49974 60.2493V42.496H16.4981L16.4982 60.2493ZM36.3499 58.9911C37.9837 58.9911 39.3774 60.0397 39.8935 61.4995H24.0995C24.6157 60.0397 26.0093 58.9911 27.6433 58.9911H36.3499ZM30.7466 56.4907V50.4664C31.1589 50.4863 31.5725 50.4973 31.9879 50.4973C32.102 50.4973 32.2165 50.4965 32.3308 50.495C32.637 50.491 32.942 50.4808 33.2464 50.466V56.4907H30.7466ZM18.9978 43.9194V42.4959C18.9979 41.2015 18.0096 40.1339 16.7482 40.008V34.4944C16.7482 33.4713 16.1302 32.591 15.2483 32.2042V24.4789C15.2483 23.0938 14.4902 21.827 13.2697 21.173L10.0032 19.4223C11.0248 15.5467 13.0572 12.0085 15.9116 9.15327C24.7808 0.281395 39.2121 0.28152 48.0812 9.15327C51.1968 12.2698 53.3043 16.135 54.2256 20.3977C53.6722 20.3163 53.1096 20.2743 52.5412 20.2743C51.8973 20.2743 51.2614 20.3307 50.6377 20.4349C49.6288 16.5203 47.3821 12.98 44.2406 10.3865C40.8059 7.55105 36.4575 5.98946 31.9968 5.98946C28.6124 5.98946 25.2837 6.88072 22.3702 8.5671C19.5447 10.2025 17.1632 12.5469 15.4827 15.3474C15.1274 15.9393 15.3192 16.7074 15.9112 17.0627C16.5029 17.4178 17.2707 17.2263 17.6261 16.6341C20.6862 11.5345 26.0585 8.4897 31.9969 8.4897C33.5993 8.4897 35.1596 8.72002 36.643 9.15127L27.4192 18.3778C26.931 18.866 26.931 19.6576 27.4192 20.1458C27.6633 20.39 27.983 20.512 28.3029 20.512C28.6228 20.512 28.9426 20.3898 29.1866 20.1458L39.2004 10.1292C40.7932 10.8922 42.2545 11.9007 43.5296 13.1102L27.4699 29.1748C26.9818 29.6631 26.9818 30.4547 27.4699 30.943C27.714 31.1872 28.0338 31.3092 28.3537 31.3092C28.6735 31.3092 28.9934 31.1872 29.2374 30.943L45.2128 14.9627C46.6077 16.7478 47.6527 18.8289 48.2315 21.1119C46.8886 21.6573 45.6501 22.4601 44.5805 23.4948L44.4387 23.6319C40.944 27.0124 39.9646 32.2505 42.0016 36.6659L42.6827 38.1425C39.6824 40.6327 35.9164 41.996 31.9963 41.996C28.7626 41.996 25.6247 41.0728 22.9217 39.3262C22.3419 38.9513 21.5682 39.118 21.1937 39.6981C20.8191 40.278 20.9856 41.052 21.5654 41.4266C24.6734 43.4348 28.2804 44.4964 31.9964 44.4964C36.2796 44.4964 40.4021 43.0793 43.7616 40.4804L45.2613 43.7311C37.5194 49.2966 26.8314 49.3859 18.9978 43.9194ZM56.5974 59.0603C56.5974 60.4053 55.5036 61.4995 54.1589 61.4995H50.4718C49.1272 61.4995 48.0333 60.4053 48.0333 59.0603V51.2304H56.5973V59.0603H56.5974ZM56.5974 48.73H48.0335V45.2712H56.5974V48.73ZM60.5707 35.6869L57.0809 42.7708H56.4397V37.6363C56.4397 36.9459 55.8801 36.3861 55.1898 36.3861C54.4996 36.3861 53.9399 36.9459 53.9399 37.6363V42.7708H47.5713L44.2715 35.6181C42.679 32.1665 43.4447 28.072 46.1767 25.4291L46.3185 25.2919C49.8077 21.9166 55.2746 21.9164 58.764 25.2919C61.5703 28.0066 62.2964 32.184 60.5707 35.6869Z" fill="#4E95FF"/>
<path d="M56.0737 32.5529C55.8412 32.3204 55.5187 32.1866 55.1901 32.1866C54.8613 32.1866 54.5389 32.3204 54.3064 32.5529C54.0739 32.7855 53.9402 33.1081 53.9402 33.4368C53.9402 33.7656 54.0739 34.0882 54.3064 34.3207C54.5389 34.5533 54.8614 34.6871 55.1901 34.6871C55.5188 34.6871 55.8412 34.5533 56.0737 34.3207C56.3062 34.0882 56.4399 33.7656 56.4399 33.4368C56.4399 33.1081 56.3062 32.7854 56.0737 32.5529Z" fill="#4E95FF"/>
</svg>
