<svg width="72" height="58" viewBox="0 0 72 58" fill="none" xmlns="http://www.w3.org/2000/svg">
<path d="M50.25 55.244H8.7465L8.211 51.8432H44.859C45.1574 51.8432 45.4435 51.726 45.6545 51.5174C45.8655 51.3088 45.984 51.0259 45.984 50.7309C45.984 50.4359 45.8655 50.153 45.6545 49.9444C45.4435 49.7358 45.1574 49.6186 44.859 49.6186H5.6595V46.8377H41.55C41.8484 46.8377 42.1345 46.7205 42.3455 46.5119C42.5565 46.3033 42.675 46.0204 42.675 45.7254C42.675 45.4304 42.5565 45.1474 42.3455 44.9388C42.1345 44.7302 41.8484 44.6131 41.55 44.6131H7.0695L4.299 27.0426H28.5645C28.8629 27.0426 29.149 26.9254 29.36 26.7168C29.571 26.5082 29.6895 26.2253 29.6895 25.9303C29.6895 25.6353 29.571 25.3523 29.36 25.1437C29.149 24.9351 28.8629 24.8179 28.5645 24.8179H2.25V22.0297H25.3875C25.6859 22.0297 25.972 21.9125 26.183 21.7039C26.394 21.4953 26.5125 21.2123 26.5125 20.9173C26.5125 20.6223 26.394 20.3394 26.183 20.1308C25.972 19.9222 25.6859 19.805 25.3875 19.805H3.1575L2.439 15.2504H21.309C21.6074 15.2504 21.8935 15.1332 22.1045 14.9246C22.3155 14.716 22.434 14.433 22.434 14.138C22.434 13.843 22.3155 13.5601 22.1045 13.3515C21.8935 13.1429 21.6074 13.0257 21.309 13.0257H10.95V9.94081C10.903 8.53612 10.3055 7.2045 9.2839 6.22727C8.26228 5.25003 6.89647 4.70371 5.475 4.70371C4.05353 4.70371 2.68772 5.25003 1.6661 6.22727C0.644472 7.2045 0.0470373 8.53612 0 9.94081V14.138C7.64795e-05 14.1956 0.00458953 14.2531 0.0135 14.3101L0.888 19.8525C0.638961 19.9024 0.414847 20.0355 0.253189 20.2293C0.0915306 20.4232 0.0021448 20.6661 0 20.9173V25.9303C0 26.2253 0.118526 26.5082 0.329505 26.7168C0.540483 26.9254 0.826631 27.0426 1.125 27.0426H2.025L4.8 44.6131H4.5345C4.23613 44.6131 3.94998 44.7302 3.739 44.9388C3.52803 45.1474 3.4095 45.4304 3.4095 45.7254V50.7368C3.4095 51.0318 3.52803 51.3148 3.739 51.5234C3.94998 51.732 4.23613 51.8492 4.5345 51.8492H5.9325L6.672 56.5328C6.71287 56.7952 6.84744 57.0345 7.05134 57.2073C7.25524 57.38 7.51498 57.4749 7.7835 57.4746H50.25C50.5484 57.4746 50.8345 57.3574 51.0455 57.1488C51.2565 56.9402 51.375 56.6573 51.375 56.3623C51.375 56.0673 51.2565 55.7843 51.0455 55.5757C50.8345 55.3671 50.5484 55.2499 50.25 55.2499V55.244ZM5.478 6.74619C6.33335 6.74854 7.15286 7.08616 7.75685 7.68501C8.36083 8.28386 8.7 9.09509 8.7 9.94081V13.0257H2.25V9.94081C2.25 9.09406 2.59 8.28194 3.19528 7.68292C3.80056 7.08389 4.62161 6.74697 5.478 6.74619Z" fill="#4E95FF"/>
<path d="M53.487 8.77509C53.1886 8.77509 52.9025 8.89228 52.6915 9.10088C52.4805 9.30949 52.362 9.59241 52.362 9.88742C52.362 10.1824 52.4805 10.4654 52.6915 10.674C52.9025 10.8826 53.1886 10.9998 53.487 10.9998H53.517C53.6639 10.9994 53.8093 10.9702 53.9448 10.914C54.0803 10.8578 54.2032 10.7756 54.3063 10.6722C54.4095 10.5688 54.491 10.4462 54.546 10.3115C54.6011 10.1768 54.6286 10.0327 54.627 9.88742C54.6234 9.59093 54.5017 9.30781 54.2883 9.09954C54.0748 8.89127 53.7869 8.77467 53.487 8.77509Z" fill="#4E95FF"/>
<path d="M5.463 10.9998H5.493C5.63992 10.9994 5.78532 10.9702 5.92079 10.914C6.05627 10.8578 6.17915 10.7756 6.28234 10.6722C6.38553 10.5688 6.46699 10.4462 6.52203 10.3115C6.57707 10.1768 6.60459 10.0327 6.603 9.88742C6.59944 9.59093 6.47772 9.30781 6.26427 9.09954C6.05082 8.89127 5.76288 8.77467 5.463 8.77509C5.16463 8.77509 4.87848 8.89228 4.66751 9.10088C4.45653 9.30949 4.338 9.59241 4.338 9.88742C4.338 10.1824 4.45653 10.4654 4.66751 10.674C4.87848 10.8826 5.16463 10.9998 5.463 10.9998Z" fill="#4E95FF"/>
<path d="M62.052 41.9093C61.266 41.9093 55.7715 41.9746 53.3055 43.56L23.289 1.26756C22.8259 0.627293 22.1291 0.190319 21.3459 0.049144C20.5627 -0.0920305 19.7547 0.0736756 19.0929 0.511184C18.4311 0.948693 17.9675 1.62366 17.8002 2.39321C17.6329 3.16276 17.775 3.96648 18.1965 4.63423L46.611 48.831C48.5563 52.1536 51.3928 54.8796 54.807 56.7078C56.7313 57.5737 58.8233 58.0145 60.9375 57.9996C67.0365 58.0056 72 54.5025 72 50.2014V45.3872C72 42.0072 63.0705 41.9093 62.052 41.9093ZM62.052 44.134C64.6222 43.9724 67.1954 44.4014 69.57 45.3872C67.1954 46.3731 64.6222 46.802 62.052 46.6405C59.4813 46.8013 56.9078 46.3724 54.5325 45.3872C56.9077 44.4017 59.4813 43.9727 62.052 44.134ZM60.9375 55.7809C59.1526 55.796 57.3858 55.427 55.7595 54.6997C52.7327 53.0452 50.2231 50.6013 48.504 47.6342L20.1 3.44032C20.0027 3.26367 19.9758 3.05742 20.0246 2.86214C20.0733 2.66686 20.1943 2.4967 20.3635 2.38512C20.5328 2.27355 20.7382 2.22864 20.9392 2.25924C21.1403 2.28984 21.3225 2.39372 21.45 2.55046L52.1835 45.8574C52.9665 48.7806 61.0845 48.8755 62.0535 48.8755C64.6628 48.9014 67.2602 48.5236 69.7515 47.7558V50.2014C69.75 53.227 65.715 55.7809 60.9375 55.7809Z" fill="#4E95FF"/>
<path d="M35.7 15.2504H56.526L55.8075 19.805H40.6725C40.3741 19.805 40.088 19.9222 39.877 20.1308C39.666 20.3394 39.5475 20.6223 39.5475 20.9173C39.5475 21.2123 39.666 21.4953 39.877 21.7039C40.088 21.9125 40.3741 22.0297 40.6725 22.0297H56.7225V24.8179H44.451C44.1526 24.8179 43.8665 24.9351 43.6555 25.1437C43.4445 25.3523 43.326 25.6353 43.326 25.9303C43.326 26.2253 43.4445 26.5082 43.6555 26.7168C43.8665 26.9254 44.1526 27.0426 44.451 27.0426H54.666L52.845 38.5842C52.7993 38.8758 52.8725 39.1735 53.0485 39.4118C53.2246 39.6501 53.4891 39.8096 53.784 39.8552C53.8421 39.864 53.9007 39.8685 53.9595 39.8686C54.2275 39.8682 54.4865 39.7733 54.69 39.6009C54.8935 39.4286 55.0281 39.19 55.0695 38.9283L56.9445 27.0426H57.8445C58.1429 27.0426 58.429 26.9254 58.64 26.7168C58.851 26.5082 58.9695 26.2253 58.9695 25.9303V20.9173C58.9674 20.6661 58.878 20.4232 58.7163 20.2293C58.5547 20.0355 58.3305 19.9024 58.0815 19.8525L58.95 14.3101C58.9589 14.2531 58.9634 14.1956 58.9635 14.138V9.94081C58.9062 8.54308 58.3043 7.22144 57.2838 6.25252C56.2633 5.28361 54.9033 4.74252 53.4885 4.74252C52.0737 4.74252 50.7137 5.28361 49.6932 6.25252C48.6727 7.22144 48.0708 8.54308 48.0135 9.94081V13.0257H35.7C35.4016 13.0257 35.1155 13.1429 34.9045 13.3515C34.6935 13.5601 34.575 13.843 34.575 14.138C34.575 14.433 34.6935 14.716 34.9045 14.9246C35.1155 15.1332 35.4016 15.2504 35.7 15.2504ZM50.265 9.94081C50.2832 9.10605 50.6314 8.31154 51.2349 7.72753C51.8384 7.14353 52.6493 6.81648 53.4937 6.81648C54.3382 6.81648 55.1491 7.14353 55.7526 7.72753C56.3561 8.31154 56.7043 9.10605 56.7225 9.94081V13.0257H50.2725L50.265 9.94081Z" fill="#4E95FF"/>
</svg>
