<svg width="18" height="18" viewBox="0 0 18 18" fill="none" xmlns="http://www.w3.org/2000/svg">
<rect width="18" height="18" rx="9" fill="#00A9E7"/>
<path d="M13.6432 9.48049C13.6739 9.23503 13.7045 9.02026 13.7045 8.7748C13.7045 6.32026 11.7102 4.29526 9.225 4.29526C8.97955 4.29526 8.76477 4.32594 8.51932 4.35662C8.12045 4.14185 7.69091 4.0498 7.26136 4.0498C5.72727 4.0498 4.5 5.27708 4.5 6.81117C4.5 7.24071 4.59205 7.67026 4.80682 8.06912C4.77614 8.31458 4.74545 8.52935 4.74545 8.7748C4.74545 11.2294 6.73977 13.2544 9.225 13.2544C9.47045 13.2544 9.68523 13.2237 9.93068 13.193C10.3295 13.3771 10.7591 13.4998 11.1886 13.4998C12.7227 13.4998 13.95 12.2725 13.95 10.7384C13.95 10.3089 13.8273 9.87935 13.6432 9.48049ZM11.0966 10.4009C11.0045 10.585 10.8818 10.7384 10.6977 10.8612C10.5136 10.9839 10.3295 11.0759 10.0841 11.1373C9.83864 11.1987 9.5625 11.2294 9.25568 11.2294C8.61136 11.2294 8.08977 11.0759 7.72159 10.7998C7.50682 10.6157 7.32273 10.4009 7.23068 10.1248C7.10795 9.87935 7.32273 9.57253 7.62955 9.57253H7.72159C7.90568 9.57253 8.08977 9.69526 8.15114 9.84867C8.2125 10.0021 8.30455 10.1248 8.42727 10.2169C8.61136 10.3703 8.8875 10.4316 9.225 10.4316C9.53182 10.4316 9.77727 10.3703 9.96136 10.2782C10.1455 10.1862 10.2375 10.0021 10.2375 9.81799C10.2375 9.72594 10.2068 9.66458 10.1761 9.60321C10.1455 9.54185 10.0534 9.48049 9.99205 9.4498C9.9 9.38844 9.80795 9.35776 9.65455 9.32708C9.53182 9.2964 9.37841 9.23503 9.19432 9.20435L9.01023 9.14299C8.79545 9.08162 8.55 9.02026 8.36591 8.9589C8.15114 8.89753 7.96705 8.80549 7.81364 8.71344C7.66023 8.6214 7.5375 8.49867 7.44545 8.31458C7.35341 8.16117 7.32273 7.9464 7.32273 7.70094C7.32273 7.45549 7.38409 7.24071 7.47614 7.05662C7.56818 6.87253 7.72159 6.71912 7.875 6.62708C8.05909 6.50435 8.24318 6.4123 8.48864 6.38162C8.70341 6.32026 8.94886 6.28958 9.225 6.28958C9.53182 6.28958 9.77727 6.32026 10.0227 6.38162C10.2682 6.44299 10.4523 6.53503 10.6364 6.68844C10.8205 6.81117 10.9432 6.96458 11.0352 7.17935C11.1886 7.45549 10.9739 7.82367 10.6364 7.82367H10.5443C10.3602 7.82367 10.2068 7.73162 10.1148 7.57821C10.0534 7.48617 9.99205 7.39412 9.9 7.30208C9.74659 7.17935 9.50114 7.11799 9.225 7.11799C8.94886 7.11799 8.73409 7.17935 8.58068 7.2714C8.42727 7.36344 8.36591 7.51685 8.36591 7.67026C8.36591 7.7623 8.39659 7.82367 8.42727 7.88503C8.45795 7.9464 8.51932 8.00776 8.61136 8.03844C8.70341 8.06912 8.79545 8.13049 8.91818 8.16117C9.04091 8.19185 9.19432 8.22253 9.37841 8.2839C9.5625 8.31458 9.71591 8.37594 9.9 8.40662C10.0534 8.4373 10.2068 8.49867 10.3602 8.52935C10.5136 8.59071 10.6364 8.65208 10.7591 8.71344C10.8818 8.7748 10.9739 8.86685 11.0659 8.9589C11.158 9.05094 11.2193 9.17367 11.25 9.2964C11.3114 9.41912 11.3114 9.60321 11.3114 9.78731C11.25 10.0021 11.1886 10.2169 11.0966 10.4009Z" fill="white"/>
</svg>
