<svg width="18" height="18" viewBox="0 0 18 18" fill="none" xmlns="http://www.w3.org/2000/svg">
<rect width="18" height="18" rx="9" fill="#7C509A"/>
<path d="M11.8143 4.29547C10.0991 3.96792 8.31793 3.96792 6.60275 4.29547C5.84411 4.45924 4.88757 5.37637 4.72264 6.09698C4.42579 7.50544 4.42579 8.94665 4.72264 10.3551C4.92055 11.0757 5.87709 11.9928 6.60275 12.1566C6.63573 12.1566 6.66872 12.1894 6.66872 12.2221V14.2857C6.66872 14.3839 6.80065 14.4495 6.86662 14.3512L7.85615 13.3358C7.85615 13.3358 8.64777 12.5169 8.77971 12.3859C8.77971 12.3859 8.8127 12.3532 8.84568 12.3532C9.83521 12.3859 10.8577 12.2876 11.8473 12.1239C12.6059 11.9601 13.5624 11.043 13.7274 10.3224C14.0242 8.9139 14.0242 7.47268 13.7274 6.06423C13.5294 5.37637 12.5729 4.45924 11.8143 4.29547ZM11.8473 10.4534C11.6823 10.7809 11.4844 11.043 11.1546 11.2067C11.0556 11.2395 10.9567 11.2722 10.8577 11.305C10.7258 11.2722 10.6268 11.2395 10.5279 11.2067C9.47238 10.7809 8.48285 10.1913 7.69123 9.33971C7.26244 8.84839 6.89961 8.29155 6.60275 7.70197C6.47081 7.40717 6.33887 7.14513 6.23992 6.85034C6.14097 6.5883 6.30589 6.32626 6.47081 6.12974C6.63573 5.93321 6.83364 5.80219 7.06453 5.70392C7.22945 5.60566 7.39437 5.67117 7.52631 5.80219C7.79018 6.12974 8.05406 6.45728 8.25196 6.81759C8.3839 7.04687 8.35092 7.30891 8.12003 7.47268C8.05406 7.50544 8.02107 7.53819 7.9551 7.6037C7.92212 7.63646 7.85615 7.66921 7.82317 7.73472C7.7572 7.83299 7.7572 7.93125 7.79018 8.02952C8.05406 8.78288 8.54882 9.37246 9.30746 9.70001C9.4394 9.76552 9.53835 9.79828 9.70327 9.79828C9.93416 9.76552 10.0331 9.50348 10.198 9.37246C10.363 9.24144 10.5609 9.24144 10.7588 9.33971C10.9237 9.43797 11.0886 9.56899 11.2865 9.70001C11.4514 9.83103 11.6164 9.9293 11.7813 10.0603C11.8802 10.1258 11.9132 10.2896 11.8473 10.4534ZM10.4619 7.99676C10.3959 7.99676 10.4289 7.99676 10.4619 7.99676C10.33 7.99676 10.297 7.93125 10.264 7.83299C10.264 7.76748 10.264 7.66921 10.231 7.6037C10.198 7.47268 10.1321 7.34166 10.0001 7.2434C9.93416 7.21064 9.86819 7.17789 9.80222 7.14513C9.70327 7.11238 9.6373 7.11238 9.53835 7.11238C9.4394 7.07963 9.40641 7.01412 9.40641 6.91585C9.40641 6.85034 9.50537 6.78483 9.57133 6.78483C10.0991 6.81759 10.4949 7.11238 10.5609 7.73472C10.5609 7.76748 10.5609 7.83299 10.5609 7.86574C10.5609 7.93125 10.5279 7.99676 10.4619 7.99676ZM10.1321 6.55555C9.96715 6.49004 9.80222 6.42453 9.60432 6.39177C9.53835 6.39177 9.4394 6.35902 9.37343 6.35902C9.27448 6.35902 9.20851 6.29351 9.24149 6.19525C9.24149 6.09698 9.30746 6.03147 9.40641 6.06423C9.73626 6.09698 10.0331 6.16249 10.33 6.29351C10.9237 6.5883 11.2535 7.07962 11.3525 7.73472C11.3525 7.76748 11.3525 7.80023 11.3525 7.83299C11.3525 7.8985 11.3525 7.96401 11.3525 8.06227C11.3525 8.09502 11.3525 8.12778 11.3525 8.16054C11.3195 8.29155 11.0886 8.32431 11.0556 8.16054C11.0556 8.12778 11.0226 8.06227 11.0226 8.02952C11.0226 7.73472 10.9567 7.43993 10.8247 7.17789C10.6268 6.8831 10.3959 6.68657 10.1321 6.55555ZM11.9132 8.52084C11.8143 8.52084 11.7483 8.42257 11.7483 8.32431C11.7483 8.12778 11.7153 7.93125 11.6823 7.73472C11.5504 6.68657 10.6928 5.83494 9.67029 5.67117C9.50537 5.63841 9.34045 5.63841 9.20851 5.60566C9.10956 5.60566 8.97762 5.60566 8.94463 5.47464C8.91165 5.37638 9.0106 5.27811 9.10955 5.27811C9.14254 5.27811 9.17552 5.27811 9.17552 5.27811C10.5279 5.31087 9.24149 5.27811 9.17552 5.27811C10.5609 5.31087 11.7153 6.228 11.9462 7.6037C11.9792 7.83299 12.0122 8.06227 12.0122 8.32431C12.0781 8.42257 12.0122 8.52084 11.9132 8.52084Z" fill="white"/>
</svg>
