<svg width="18" height="18" viewBox="0 0 18 18" fill="none" xmlns="http://www.w3.org/2000/svg">
<rect width="18" height="18" rx="9" fill="#0077FF"/>
<path d="M9.44194 12.1501C6.05949 12.1501 4.13019 9.78523 4.0498 5.8501H5.74412C5.79977 8.73839 7.04887 9.96181 8.03825 10.2141V5.8501H9.63363V8.34109C10.6106 8.23388 11.6371 7.09875 11.9834 5.8501H13.5788C13.4483 6.49768 13.1882 7.11084 12.8147 7.65122C12.4413 8.1916 11.9625 8.64758 11.4083 8.99064C12.0269 9.3041 12.5732 9.74777 13.0113 10.2924C13.4494 10.837 13.7693 11.4702 13.9498 12.1501H12.1937C12.0316 11.5595 11.7022 11.0309 11.2468 10.6304C10.7914 10.2299 10.2303 9.97537 9.63363 9.89875V12.1501H9.44194V12.1501Z" fill="white"/>
</svg>
