<svg width="214" height="32" viewBox="0 0 214 32" fill="none" xmlns="http://www.w3.org/2000/svg">
<path d="M39.0584 6.0415C41.626 6.0415 43.5904 6.51977 44.9512 7.47677C46.312 8.43377 46.9924 9.89553 46.9924 11.8616C46.9924 14.3147 45.8026 15.9768 43.4235 16.8464C43.7486 17.2466 44.1167 17.7337 44.5273 18.3082C44.9384 18.8822 45.3577 19.5046 45.7857 20.1743C46.2137 20.8441 46.6243 21.5315 47.018 22.2361C47.4122 22.9408 47.7629 23.6324 48.0711 24.311H44.4505C44.1254 23.6844 43.7742 23.0542 43.3979 22.4188C43.0211 21.7839 42.6402 21.1662 42.2552 20.5657C41.8702 19.9656 41.4893 19.4 41.1125 18.8692C40.7357 18.3384 40.385 17.8643 40.0598 17.447C39.8202 17.4642 39.6145 17.473 39.4435 17.473C39.2724 17.473 39.1096 17.473 38.9555 17.473H37.3894V24.311H34.1538V6.48491C34.9417 6.31108 35.7803 6.19349 36.6701 6.1326C37.5604 6.07172 38.3565 6.0415 39.0584 6.0415ZM39.2893 8.88601C38.6048 8.88601 37.9715 8.9125 37.3894 8.96456V14.8107H38.8015C39.5889 14.8107 40.2821 14.7674 40.8815 14.6805C41.4806 14.5932 41.9813 14.4365 42.3837 14.2106C42.7861 13.9843 43.0897 13.6798 43.295 13.2969C43.5003 12.9143 43.6032 12.4272 43.6032 11.8356C43.6032 11.2787 43.5003 10.8088 43.295 10.4259C43.0897 10.0433 42.7943 9.7389 42.4093 9.51255C42.0243 9.28619 41.5661 9.12538 41.0356 9.02963C40.5048 8.93388 39.9227 8.88601 39.2893 8.88601ZM61.4489 23.8936C60.8499 24.0502 60.0707 24.211 59.1122 24.3765C58.1538 24.5415 57.1007 24.6242 55.9539 24.6242C54.8752 24.6242 53.9726 24.4676 53.2451 24.1543C52.5176 23.8411 51.9355 23.406 51.4988 22.8497C51.0626 22.2928 50.7498 21.6273 50.5618 20.8529C50.3735 20.0786 50.2793 19.2304 50.2793 18.3082V10.661H53.3864V17.8123C53.3864 19.274 53.5958 20.318 54.0151 20.944C54.4349 21.5706 55.1665 21.8838 56.2104 21.8838C56.5872 21.8838 56.9851 21.8666 57.4048 21.8318C57.8241 21.7969 58.1364 21.7532 58.3418 21.7012V10.661H61.4489V23.8936ZM68.7669 22.0405C69.5886 22.0405 70.1877 21.9405 70.564 21.7402C70.9408 21.5404 71.1292 21.1964 71.1292 20.7093C71.1292 20.2571 70.928 19.8829 70.5256 19.5868C70.1232 19.2912 69.4602 18.9691 68.5356 18.6215C67.9708 18.4128 67.4532 18.1906 66.9822 17.9559C66.5112 17.7207 66.1047 17.447 65.7627 17.1337C65.4202 16.8204 65.1504 16.4421 64.9538 15.9982C64.7567 15.5548 64.6584 15.011 64.6584 14.3673C64.6584 13.1142 65.112 12.127 66.0192 11.4047C66.9264 10.6829 68.1592 10.3217 69.7167 10.3217C70.5041 10.3217 71.2577 10.3956 71.9765 10.5434C72.6953 10.6913 73.2349 10.8349 73.5938 10.9743L73.0291 13.532C72.6866 13.3754 72.2504 13.2318 71.7195 13.1012C71.1891 12.9706 70.5727 12.9055 69.8708 12.9055C69.2375 12.9055 68.724 13.0143 68.3303 13.2318C67.9365 13.4493 67.7395 13.7844 67.7395 14.2367C67.7395 14.463 67.7783 14.6629 67.8552 14.8372C67.9324 15.011 68.065 15.1718 68.2534 15.3196C68.4414 15.4674 68.6897 15.6157 68.9979 15.7635C69.3061 15.9113 69.6824 16.0637 70.1278 16.2199C70.8635 16.4983 71.4886 16.7725 72.0021 17.0421C72.5156 17.3122 72.9395 17.6166 73.2733 17.9559C73.6071 18.2952 73.8508 18.6824 74.0049 19.1174C74.159 19.5524 74.2358 20.0744 74.2358 20.6833C74.2358 21.9884 73.7612 22.9756 72.811 23.6454C71.8608 24.3156 70.5041 24.6503 68.7409 24.6503C67.5598 24.6503 66.61 24.5503 65.8907 24.3505C65.1719 24.1501 64.6671 23.9893 64.3758 23.8675L64.9154 21.2313C65.3772 21.4228 65.9296 21.6054 66.5712 21.7793C67.2132 21.9535 67.9452 22.0405 68.7669 22.0405ZM173.196 22.5884C173.196 23.1973 172.995 23.6933 172.592 24.0762C172.19 24.4588 171.706 24.6503 171.142 24.6503C170.56 24.6503 170.072 24.4588 169.678 24.0762C169.284 23.6933 169.087 23.1973 169.087 22.5884C169.087 21.9796 169.284 21.4795 169.678 21.0876C170.072 20.6963 170.56 20.5006 171.142 20.5006C171.706 20.5006 172.19 20.6963 172.592 21.0876C172.995 21.4795 173.196 21.9796 173.196 22.5884ZM188.679 17.473C188.679 18.5518 188.525 19.5348 188.217 20.4221C187.909 21.3093 187.472 22.0665 186.907 22.693C186.343 23.3191 185.662 23.8067 184.866 24.1543C184.07 24.5025 183.192 24.6763 182.234 24.6763C181.275 24.6763 180.402 24.5025 179.615 24.1543C178.827 23.8067 178.151 23.3191 177.586 22.693C177.022 22.0665 176.581 21.3093 176.264 20.4221C175.948 19.5348 175.789 18.5518 175.789 17.473C175.789 16.3942 175.948 15.4154 176.264 14.5369C176.581 13.658 177.026 12.9055 177.599 12.279C178.173 11.6529 178.853 11.17 179.64 10.8307C180.428 10.4914 181.293 10.3217 182.234 10.3217C183.176 10.3217 184.044 10.4914 184.84 10.8307C185.636 11.17 186.317 11.6529 186.882 12.279C187.446 12.9055 187.887 13.658 188.204 14.5369C188.521 15.4154 188.679 16.3942 188.679 17.473ZM185.495 17.473C185.495 16.1158 185.208 15.0412 184.635 14.2497C184.061 13.4581 183.261 13.0621 182.234 13.0621C181.207 13.0621 180.407 13.4581 179.833 14.2497C179.26 15.0412 178.973 16.1158 178.973 17.473C178.973 18.8474 179.26 19.935 179.833 20.7353C180.407 21.5357 181.207 21.9359 182.234 21.9359C183.261 21.9359 184.061 21.5357 184.635 20.7353C185.208 19.935 185.495 18.8474 185.495 17.473ZM199.54 13.506C199.284 13.4186 198.928 13.3275 198.475 13.2318C198.021 13.136 197.495 13.0882 196.895 13.0882C196.553 13.0882 196.189 13.123 195.804 13.1927C195.419 13.262 195.149 13.3233 194.995 13.3754V24.311H191.889V11.3136C192.488 11.0873 193.237 10.8739 194.135 10.6741C195.034 10.4737 196.031 10.3738 197.127 10.3738C197.332 10.3738 197.572 10.3868 197.846 10.4128C198.119 10.4389 198.393 10.4737 198.667 10.5174C198.941 10.5606 199.207 10.6132 199.463 10.6741C199.72 10.7349 199.926 10.7916 200.08 10.8437L199.54 13.506ZM204.676 17.1337C204.676 18.4737 204.962 19.4521 205.536 20.0698C206.11 20.6875 206.85 20.9965 207.757 20.9965C208.253 20.9965 208.72 20.9268 209.156 20.7879C209.593 20.6484 209.948 20.483 210.222 20.2919V13.2188C210 13.1667 209.726 13.1188 209.401 13.0752C209.075 13.0315 208.664 13.0101 208.168 13.0101C207.038 13.0101 206.174 13.3884 205.575 14.1451C204.975 14.9022 204.676 15.8983 204.676 17.1337ZM213.329 22.9277C213.329 25.103 212.785 26.6949 211.698 27.7039C210.611 28.713 208.947 29.2177 206.704 29.2177C205.882 29.2177 205.082 29.148 204.303 29.009C203.525 28.8696 202.818 28.6869 202.185 28.4611L202.75 25.7727C203.281 25.9986 203.884 26.1817 204.56 26.3207C205.236 26.4601 205.968 26.5294 206.756 26.5294C208.005 26.5294 208.895 26.2686 209.426 25.7467C209.957 25.2247 210.222 24.4504 210.222 23.4237V22.9017C209.914 23.0584 209.507 23.215 209.002 23.3716C208.498 23.5283 207.92 23.6063 207.269 23.6063C206.413 23.6063 205.63 23.4674 204.92 23.189C204.209 22.9105 203.602 22.5015 203.097 21.9619C202.591 21.4228 202.198 20.7484 201.916 19.9392C201.633 19.1304 201.492 18.1953 201.492 17.1337C201.492 16.1418 201.642 15.2285 201.941 14.3933C202.241 13.5581 202.677 12.8446 203.251 12.2529C203.824 11.6613 204.522 11.2002 205.343 10.8697C206.165 10.5393 207.098 10.3738 208.142 10.3738C209.152 10.3738 210.111 10.4519 211.018 10.6085C211.925 10.7652 212.696 10.9306 213.329 11.1044V22.9277Z" fill="white"/>
<path d="M85.2 24.7021C83.8648 24.7021 82.6663 24.4934 81.6055 24.0761C80.5437 23.6582 79.6452 23.0452 78.909 22.236C78.1732 21.4268 77.6081 20.4396 77.2143 19.2739C76.8206 18.1077 76.624 16.7682 76.624 15.2544C76.624 13.7406 76.8508 12.4006 77.3044 11.2349C77.758 10.0692 78.3785 9.08198 79.166 8.27279C79.9534 7.46359 80.878 6.85053 81.9393 6.43269C83.0006 6.01484 84.1387 5.80615 85.3541 5.80615C86.0903 5.80615 86.7579 5.86286 87.3569 5.9758C87.956 6.08921 88.4782 6.21517 88.9231 6.35414C89.3684 6.49357 89.7361 6.64138 90.0274 6.79801C90.3182 6.95465 90.524 7.06759 90.6438 7.13731L89.6936 9.82565C89.2829 9.56443 88.6967 9.3167 87.9345 9.08198C87.1731 8.8468 86.3468 8.72921 85.457 8.72921C84.6865 8.72921 83.9677 8.86446 83.3001 9.13404C82.6325 9.40362 82.0545 9.80798 81.5666 10.3476C81.0787 10.8868 80.6978 11.5658 80.4243 12.3834C80.1504 13.2009 80.0133 14.1496 80.0133 15.2283C80.0133 16.1853 80.1203 17.0638 80.3343 17.8642C80.5483 18.6645 80.878 19.3561 81.3229 19.939C81.7678 20.5223 82.333 20.9745 83.0175 21.2962C83.7025 21.6183 84.5237 21.7791 85.4826 21.7791C86.6294 21.7791 87.5623 21.662 88.2815 21.4268C89.0004 21.1921 89.5568 20.9704 89.9501 20.7612L90.8235 23.4495C90.6182 23.589 90.3397 23.7279 89.989 23.8674C89.6378 24.0064 89.223 24.1411 88.7434 24.2717C88.2642 24.4023 87.725 24.5069 87.126 24.585C86.5266 24.6631 85.885 24.7021 85.2 24.7021ZM98.244 22.0924C99.2024 22.0924 99.9304 22.0403 100.426 21.9357V18.4386C100.255 18.3861 100.007 18.3341 99.6821 18.282C99.3565 18.2295 98.9971 18.2035 98.6034 18.2035C98.2613 18.2035 97.9143 18.2295 97.5636 18.282C97.2128 18.3341 96.8959 18.4298 96.6134 18.5693C96.3312 18.7082 96.1044 18.9039 95.9329 19.1563C95.7619 19.4087 95.6764 19.7261 95.6764 20.1086C95.6764 20.8569 95.9073 21.3747 96.3696 21.662C96.8319 21.9487 97.4566 22.0924 98.244 22.0924ZM97.9874 10.3216C99.0145 10.3216 99.8787 10.4517 100.581 10.7129C101.282 10.9741 101.843 11.3395 102.262 11.8094C102.682 12.2788 102.982 12.8486 103.161 13.5189C103.341 14.1886 103.431 14.9239 103.431 15.7243V23.9975C102.952 24.1021 102.228 24.2281 101.261 24.3763C100.294 24.5241 99.2024 24.598 97.9874 24.598C97.1826 24.598 96.4469 24.5195 95.7789 24.3628C95.1112 24.2067 94.5424 23.9543 94.0714 23.6062C93.6009 23.258 93.2328 22.8058 92.9676 22.249C92.7019 21.6922 92.5693 21.0047 92.5693 20.1872C92.5693 19.404 92.7193 18.7431 93.0188 18.2035C93.3183 17.6643 93.7248 17.2251 94.2383 16.8853C94.7518 16.546 95.3467 16.3025 96.023 16.1547C96.6989 16.0069 97.4053 15.933 98.1415 15.933C98.4836 15.933 98.8434 15.9548 99.2198 15.998C99.5966 16.0417 99.9985 16.1156 100.426 16.2197V15.6978C100.426 15.3325 100.384 14.9848 100.298 14.6539C100.212 14.3234 100.063 14.032 99.849 13.7796C99.635 13.5272 99.3524 13.3315 99.0016 13.1926C98.6505 13.0531 98.2097 12.9834 97.6792 12.9834C96.96 12.9834 96.301 13.0359 95.702 13.1401C95.103 13.2446 94.6151 13.3664 94.2383 13.5058L93.8533 10.9481C94.247 10.8087 94.8204 10.6692 95.5735 10.5303C96.3267 10.3908 97.1314 10.3216 97.9874 10.3216ZM107.077 7.05922L110.184 6.53727V10.6609H114.96V13.2967H110.184V18.856C110.184 19.952 110.355 20.7352 110.698 21.2051C111.04 21.675 111.622 21.9097 112.443 21.9097C113.008 21.9097 113.509 21.8488 113.946 21.727C114.382 21.6053 114.729 21.4923 114.985 21.3877L115.499 23.8934C115.139 24.05 114.669 24.2109 114.087 24.3763C113.505 24.5413 112.82 24.6241 112.033 24.6241C111.074 24.6241 110.274 24.4934 109.632 24.2327C108.99 23.9715 108.481 23.5932 108.104 23.0972C107.728 22.6013 107.462 22.0012 107.308 21.2962C107.154 20.5915 107.077 19.787 107.077 18.8821V7.05922ZM122.689 22.0924C123.647 22.0924 124.375 22.0403 124.871 21.9357V18.4386C124.7 18.3861 124.452 18.3341 124.127 18.282C123.801 18.2295 123.442 18.2035 123.048 18.2035C122.706 18.2035 122.359 18.2295 122.008 18.282C121.657 18.3341 121.34 18.4298 121.058 18.5693C120.776 18.7082 120.549 18.9039 120.378 19.1563C120.206 19.4087 120.121 19.7261 120.121 20.1086C120.121 20.8569 120.352 21.3747 120.814 21.662C121.276 21.9487 121.901 22.0924 122.689 22.0924ZM122.432 10.3216C123.459 10.3216 124.323 10.4517 125.025 10.7129C125.727 10.9741 126.288 11.3395 126.707 11.8094C127.127 12.2788 127.426 12.8486 127.606 13.5189C127.786 14.1886 127.875 14.9239 127.875 15.7243V23.9975C127.396 24.1021 126.673 24.2281 125.705 24.3763C124.738 24.5241 123.647 24.598 122.432 24.598C121.628 24.598 120.891 24.5195 120.224 24.3628C119.556 24.2067 118.987 23.9543 118.516 23.6062C118.045 23.258 117.677 22.8058 117.412 22.249C117.146 21.6922 117.014 21.0047 117.014 20.1872C117.014 19.404 117.164 18.7431 117.463 18.2035C117.763 17.6643 118.169 17.2251 118.683 16.8853C119.197 16.546 119.791 16.3025 120.467 16.1547C121.144 16.0069 121.85 15.933 122.586 15.933C122.928 15.933 123.288 15.9548 123.664 15.998C124.041 16.0417 124.443 16.1156 124.871 16.2197V15.6978C124.871 15.3325 124.828 14.9848 124.743 14.6539C124.657 14.3234 124.507 14.032 124.293 13.7796C124.079 13.5272 123.797 13.3315 123.446 13.1926C123.095 13.0531 122.655 12.9834 122.124 12.9834C121.405 12.9834 120.746 13.0359 120.146 13.1401C119.547 13.2446 119.06 13.3664 118.683 13.5058L118.298 10.9481C118.691 10.8087 119.265 10.6692 120.018 10.5303C120.772 10.3908 121.576 10.3216 122.432 10.3216ZM136.349 24.572C135.425 24.5543 134.658 24.4502 134.051 24.2587C133.443 24.0672 132.96 23.793 132.6 23.4365C132.241 23.08 131.988 22.6362 131.842 22.1054C131.697 21.5746 131.624 20.9704 131.624 20.2918V4.57958L134.731 4.05762V19.6913C134.731 20.0742 134.761 20.3959 134.821 20.6571C134.881 20.9178 134.988 21.1395 135.142 21.3227C135.296 21.5053 135.506 21.6443 135.771 21.74C136.036 21.8358 136.374 21.9097 136.785 21.9617L136.349 24.572ZM151.447 17.4728C151.447 18.5516 151.293 19.5346 150.985 20.4219C150.677 21.3092 150.24 22.0663 149.675 22.6929C149.111 23.3189 148.43 23.8065 147.634 24.1542C146.838 24.5023 145.961 24.6761 145.002 24.6761C144.044 24.6761 143.17 24.5023 142.383 24.1542C141.595 23.8065 140.92 23.3189 140.354 22.6929C139.79 22.0663 139.349 21.3092 139.032 20.4219C138.716 19.5346 138.557 18.5516 138.557 17.4728C138.557 16.394 138.716 15.4152 139.032 14.5367C139.349 13.6578 139.794 12.9053 140.367 12.2788C140.941 11.6527 141.621 11.1698 142.409 10.8305C143.196 10.4912 144.061 10.3216 145.002 10.3216C145.944 10.3216 146.812 10.4912 147.608 10.8305C148.405 11.1698 149.085 11.6527 149.65 12.2788C150.214 12.9053 150.655 13.6578 150.972 14.5367C151.289 15.4152 151.447 16.394 151.447 17.4728ZM148.263 17.4728C148.263 16.1156 147.977 15.041 147.403 14.2495C146.829 13.458 146.029 13.062 145.002 13.062C143.975 13.062 143.175 13.458 142.601 14.2495C142.028 15.041 141.741 16.1156 141.741 17.4728C141.741 18.8472 142.028 19.9348 142.601 20.7352C143.175 21.5355 143.975 21.9357 145.002 21.9357C146.029 21.9357 146.829 21.5355 147.403 20.7352C147.977 19.9348 148.263 18.8472 148.263 17.4728ZM157.096 17.1335C157.096 18.4735 157.383 19.4519 157.956 20.0696C158.53 20.6873 159.27 20.9964 160.177 20.9964C160.674 20.9964 161.14 20.9267 161.577 20.7877C162.013 20.6483 162.369 20.4828 162.642 20.2918V13.2186C162.42 13.1665 162.146 13.1187 161.821 13.075C161.495 13.0313 161.085 13.0099 160.588 13.0099C159.458 13.0099 158.594 13.3883 157.995 14.1449C157.396 14.9021 157.096 15.8981 157.096 17.1335ZM165.749 22.9276C165.749 25.1028 165.206 26.6947 164.118 27.7037C163.032 28.7128 161.367 29.2176 159.124 29.2176C158.303 29.2176 157.503 29.1478 156.724 29.0089C155.945 28.8694 155.238 28.6868 154.605 28.4609L155.17 25.7725C155.701 25.9984 156.304 26.1816 156.981 26.3205C157.657 26.46 158.388 26.5292 159.176 26.5292C160.426 26.5292 161.315 26.2685 161.846 25.7465C162.377 25.2246 162.642 24.4502 162.642 23.4235V22.9015C162.334 23.0582 161.928 23.2148 161.422 23.3714C160.918 23.5281 160.34 23.6062 159.689 23.6062C158.833 23.6062 158.05 23.4672 157.34 23.1888C156.629 22.9104 156.022 22.5014 155.517 21.9617C155.012 21.4226 154.618 20.7482 154.336 19.939C154.053 19.1303 153.912 18.1951 153.912 17.1335C153.912 16.1417 154.062 15.2284 154.361 14.3931C154.661 13.5579 155.098 12.8444 155.671 12.2528C156.244 11.6611 156.942 11.2 157.763 10.8696C158.585 10.5391 159.518 10.3736 160.562 10.3736C161.572 10.3736 162.531 10.4517 163.438 10.6083C164.346 10.765 165.116 10.9304 165.749 11.1043V22.9276Z" fill="#FF0000"/>
<path d="M6.26922 20.0803L6.80468 20.6245V13.0875C6.80468 11.1949 7.55963 9.48169 8.77961 8.24163C9.99959 7.00158 11.6851 6.23421 13.5466 6.23421C15.4081 6.23421 17.0941 7.00158 18.314 8.24163C19.534 9.48169 20.289 11.1949 20.289 13.0875C20.289 14.9797 19.534 16.6929 18.314 17.9329C17.7612 18.4949 17.1128 18.9597 16.3958 19.2999L19.037 21.9464L20.8432 20.1021C21.6461 19.2218 22.2872 18.2146 22.7445 17.1298H25.7917C25.7085 17.3915 25.617 17.6504 25.5178 17.906C24.9247 19.4351 24.0518 20.8527 22.9333 22.0789C19.8107 25.2557 16.6985 28.4432 13.5818 31.6256L12.5708 30.598L4.24628 22.1365L4.22388 22.1081C3.08483 20.8923 2.19819 19.477 1.59598 17.9464C0.990558 16.408 0.671387 14.7603 0.671387 13.0875C0.671387 9.47332 2.11269 6.20168 4.44245 3.83358C6.77267 1.46501 9.99136 0 13.5466 0C17.1023 0 20.321 1.46501 22.6507 3.83358C24.071 5.27721 25.1611 7.05642 25.7963 9.04479H22.7399C22.2346 7.85911 21.514 6.7901 20.6278 5.8898C18.8157 4.04784 16.3121 2.90865 13.5466 2.90865C10.7811 2.90865 8.27753 4.04784 6.46539 5.8898C4.65325 7.7313 3.53249 10.2765 3.53249 13.0875C3.53249 14.4005 3.7785 15.682 4.24445 16.8672C4.70949 18.0482 5.39173 19.1414 6.26694 20.0826L6.26922 20.0803ZM9.66579 23.5332L13.5827 27.5146L17.0182 24.0073L12.932 19.912C11.723 19.8009 10.6059 19.3654 9.66579 18.6915V23.5332ZM16.2911 10.2979C15.5887 9.58441 14.6184 9.14239 13.5466 9.14239C12.4752 9.14239 11.5044 9.58441 10.8025 10.2979C10.1002 11.0118 9.66579 11.9981 9.66579 13.0875C9.66579 14.1765 10.1002 15.1633 10.8025 15.8767C11.5044 16.5906 12.4752 17.0322 13.5466 17.0322C14.6184 17.0322 15.5887 16.5906 16.2911 15.8767C16.9935 15.1633 17.4279 14.1765 17.4279 13.0875C17.4279 11.9981 16.9935 11.0118 16.2911 10.2979Z" fill="#FF0000"/>
</svg>
