<svg width="200" height="31" viewBox="0 0 200 31" fill="none" xmlns="http://www.w3.org/2000/svg">
<path d="M36.5032 6.32028C38.9028 6.32028 40.7387 6.77 42.0105 7.669C43.2823 8.568 43.9181 9.94073 43.9181 11.7881C43.9181 14.0925 42.8062 15.6535 40.5827 16.4708C40.8865 16.8467 41.2305 17.3043 41.6143 17.844C41.9985 18.3832 42.3904 18.9674 42.7904 19.597C43.1904 20.2262 43.5741 20.8719 43.9421 21.5339C44.3105 22.1958 44.6382 22.8455 44.9263 23.4829H41.5425C41.2387 22.8944 40.9105 22.3019 40.5587 21.7055C40.2066 21.1086 39.8506 20.5283 39.4908 19.9646C39.131 19.4005 38.775 18.8696 38.4228 18.371C38.0707 17.8724 37.7429 17.427 37.4391 17.0345C37.2152 17.0511 37.0229 17.0594 36.863 17.0594C36.7032 17.0594 36.5511 17.0594 36.407 17.0594H34.9434V23.4829H31.9194V6.73725C32.6558 6.57396 33.4395 6.46349 34.2711 6.4063C35.1032 6.3491 35.8472 6.32028 36.5032 6.32028V6.32028ZM36.719 8.99283C36.0793 8.99283 35.4874 9.01728 34.9434 9.06662V14.5584H36.263C36.9989 14.5584 37.6468 14.5174 38.207 14.4357C38.7669 14.3541 39.2348 14.2069 39.6109 13.9943C39.987 13.7821 40.2707 13.4961 40.4626 13.1364C40.6545 12.7766 40.7506 12.319 40.7506 11.7632C40.7506 11.2405 40.6545 10.7991 40.4626 10.4394C40.2707 10.08 39.9946 9.79359 39.6348 9.58139C39.275 9.36876 38.8468 9.21769 38.3511 9.12775C37.8549 9.0378 37.3109 8.99283 36.719 8.99283V8.99283ZM57.4288 23.0904C56.869 23.2376 56.1408 23.3891 55.2451 23.5441C54.3493 23.6995 53.3652 23.7772 52.2934 23.7772C51.2852 23.7772 50.4417 23.6301 49.7617 23.3358C49.0818 23.0415 48.5378 22.6328 48.1297 22.1098C47.722 21.5867 47.4297 20.9615 47.254 20.234C47.078 19.5071 46.9899 18.7102 46.9899 17.844V10.6598H49.8938V17.3781C49.8938 18.7508 50.0895 19.7315 50.4814 20.3201C50.8737 20.9086 51.5575 21.2029 52.5331 21.2029C52.8852 21.2029 53.257 21.1863 53.6493 21.1536C54.0412 21.1213 54.3331 21.0802 54.525 21.0313V10.6598H57.4288V23.0904V23.0904ZM64.2681 21.3496C65.0361 21.3496 65.5959 21.2557 65.9476 21.068C66.2998 20.8798 66.4758 20.5571 66.4758 20.0996C66.4758 19.6743 66.2878 19.3228 65.9117 19.0451C65.5357 18.7674 64.916 18.4649 64.0519 18.1378C63.5241 17.9418 63.0404 17.7335 62.6002 17.5126C62.16 17.2921 61.7801 17.0345 61.4605 16.7406C61.1404 16.4464 60.8882 16.0905 60.7045 15.674C60.5203 15.257 60.4284 14.7466 60.4284 14.1415C60.4284 12.9648 60.8523 12.0374 61.7002 11.3589C62.5481 10.6804 63.7002 10.3411 65.1558 10.3411C65.8917 10.3411 66.5959 10.411 67.2677 10.5498C67.9395 10.6887 68.4438 10.8236 68.7793 10.9541L68.2515 13.3573C67.9314 13.2101 67.5237 13.0752 67.0275 12.9525C66.5318 12.8298 65.9558 12.7687 65.2998 12.7687C64.7079 12.7687 64.228 12.8709 63.86 13.0752C63.4921 13.2796 63.3079 13.5939 63.3079 14.0192C63.3079 14.2314 63.3442 14.4196 63.416 14.5829C63.4882 14.7466 63.6122 14.8977 63.7882 15.0365C63.9639 15.1754 64.1959 15.3142 64.484 15.4535C64.772 15.5923 65.1237 15.7351 65.5399 15.8823C66.2276 16.1438 66.8117 16.4014 67.2917 16.6546C67.7716 16.9079 68.1677 17.1939 68.4797 17.5126C68.7917 17.8318 69.0194 18.1955 69.1634 18.6037C69.3075 19.0124 69.3793 19.5027 69.3793 20.0751C69.3793 21.3007 68.9357 22.2285 68.0476 22.8577C67.1596 23.4869 65.8917 23.8017 64.2438 23.8017C63.1399 23.8017 62.2523 23.7078 61.5801 23.5196C60.9083 23.3319 60.4365 23.1804 60.1643 23.066L60.6686 20.5899C61.1002 20.7698 61.6164 20.9414 62.216 21.1047C62.816 21.268 63.5002 21.3496 64.2681 21.3496V21.3496ZM161.865 21.8648C161.865 22.4368 161.677 22.9027 161.301 23.2624C160.925 23.6218 160.473 23.8017 159.945 23.8017C159.401 23.8017 158.945 23.6218 158.578 23.2624C158.21 22.9027 158.025 22.4368 158.025 21.8648C158.025 21.2928 158.21 20.8226 158.578 20.455C158.945 20.0873 159.401 19.9035 159.945 19.9035C160.473 19.9035 160.925 20.0873 161.301 20.455C161.677 20.8226 161.865 21.2928 161.865 21.8648ZM176.336 17.0594C176.336 18.0728 176.192 18.9962 175.904 19.8297C175.616 20.6632 175.207 21.3745 174.68 21.9626C174.152 22.5512 173.516 23.0088 172.772 23.3358C172.028 23.6628 171.208 23.8261 170.312 23.8261C169.416 23.8261 168.6 23.6628 167.864 23.3358C167.128 23.0088 166.496 22.5512 165.969 21.9626C165.441 21.3745 165.029 20.6632 164.733 19.8297C164.437 18.9962 164.289 18.0728 164.289 17.0594C164.289 16.046 164.437 15.1265 164.733 14.3008C165.029 13.4756 165.445 12.7687 165.981 12.1802C166.516 11.5916 167.152 11.1384 167.888 10.8196C168.624 10.5005 169.432 10.3411 170.312 10.3411C171.192 10.3411 172.004 10.5005 172.748 10.8196C173.492 11.1384 174.128 11.5916 174.656 12.1802C175.184 12.7687 175.595 13.4756 175.892 14.3008C176.187 15.1265 176.336 16.046 176.336 17.0594ZM173.36 17.0594C173.36 15.7845 173.092 14.775 172.556 14.0314C172.02 13.2874 171.272 12.9159 170.312 12.9159C169.352 12.9159 168.604 13.2874 168.068 14.0314C167.532 14.775 167.264 15.7845 167.264 17.0594C167.264 18.3505 167.532 19.3722 168.068 20.124C168.604 20.8759 169.352 21.2518 170.312 21.2518C171.272 21.2518 172.02 20.8759 172.556 20.124C173.092 19.3722 173.36 18.3505 173.36 17.0594ZM186.486 13.3324C186.246 13.2507 185.914 13.1652 185.49 13.0752C185.066 12.9853 184.575 12.9403 184.014 12.9403C183.695 12.9403 183.354 12.9731 182.995 13.0381C182.635 13.1036 182.383 13.1608 182.239 13.2101V23.4829H179.335V11.2729C179.895 11.0607 180.595 10.8603 181.435 10.6725C182.275 10.4843 183.207 10.3905 184.231 10.3905C184.422 10.3905 184.646 10.4027 184.902 10.4271C185.158 10.4516 185.414 10.4843 185.67 10.5254C185.926 10.566 186.175 10.6153 186.414 10.6725C186.654 10.7297 186.846 10.7825 186.99 10.8319L186.486 13.3324V13.3324ZM191.286 16.7406C191.286 17.999 191.554 18.9185 192.09 19.4988C192.626 20.079 193.318 20.3694 194.166 20.3694C194.629 20.3694 195.065 20.3039 195.473 20.1729C195.881 20.0424 196.213 19.8869 196.469 19.707V13.063C196.261 13.0137 196.005 12.9687 195.701 12.9281C195.397 12.887 195.013 12.8665 194.549 12.8665C193.493 12.8665 192.686 13.2224 192.126 13.9332C191.566 14.6444 191.286 15.5801 191.286 16.7406V16.7406ZM199.373 22.1836C199.373 24.2265 198.865 25.7224 197.849 26.6703C196.833 27.6182 195.277 28.0923 193.181 28.0923C192.413 28.0923 191.666 28.0268 190.938 27.8963C190.21 27.7653 189.55 27.5937 188.958 27.3811L189.486 24.8561C189.982 25.0683 190.546 25.2399 191.178 25.3709C191.81 25.5014 192.493 25.5669 193.23 25.5669C194.397 25.5669 195.229 25.3215 195.725 24.8312C196.221 24.3409 196.469 23.6135 196.469 22.6494V22.1591C196.181 22.3062 195.801 22.4534 195.329 22.6005C194.857 22.7472 194.317 22.821 193.71 22.821C192.91 22.821 192.178 22.69 191.514 22.4285C190.85 22.167 190.282 21.7832 189.81 21.2763C189.338 20.7698 188.97 20.1362 188.706 19.3761C188.442 18.6159 188.31 17.7375 188.31 16.7406C188.31 15.8089 188.45 14.9505 188.73 14.1659C189.01 13.3817 189.418 12.7115 189.954 12.1557C190.49 11.5999 191.142 11.1668 191.91 10.8563C192.678 10.5455 193.549 10.3905 194.525 10.3905C195.469 10.3905 196.365 10.4638 197.213 10.6109C198.061 10.7581 198.781 10.9135 199.373 11.0768V22.1836V22.1836Z" fill="black"/>
<path d="M79.6263 23.8506C78.3784 23.8506 77.2583 23.6545 76.2669 23.2624C75.2746 22.8699 74.4348 22.294 73.7468 21.5339C73.0592 20.7737 72.531 19.8459 72.163 18.7508C71.7951 17.6558 71.6113 16.397 71.6113 14.975C71.6113 13.5529 71.8233 12.2946 72.2472 11.1995C72.6712 10.1045 73.2511 9.17665 73.987 8.4165C74.7229 7.65678 75.587 7.08044 76.5788 6.68836C77.5707 6.29584 78.6344 6.09979 79.7703 6.09979C80.4583 6.09979 81.0823 6.15306 81.6421 6.25916C82.2019 6.36526 82.69 6.48402 83.1058 6.61457C83.522 6.74555 83.8656 6.8844 84.1378 7.03154C84.4096 7.17868 84.6019 7.28478 84.7139 7.35027L83.8259 9.87568C83.4421 9.6303 82.8942 9.39758 82.1818 9.17665C81.4703 8.95616 80.6981 8.84569 79.8665 8.84569C79.1464 8.84569 78.4746 8.97231 77.8506 9.22555C77.2267 9.47923 76.6865 9.85909 76.2306 10.366C75.7746 10.8725 75.4186 11.5099 75.163 12.2784C74.9071 13.0464 74.7788 13.9371 74.7788 14.9505C74.7788 15.8499 74.8788 16.6752 75.0788 17.427C75.2788 18.1789 75.587 18.8286 76.0028 19.3761C76.4186 19.9236 76.9468 20.3489 77.5865 20.651C78.2267 20.9536 78.9942 21.1047 79.8904 21.1047C80.9622 21.1047 81.834 20.9942 82.5062 20.7737C83.178 20.5528 83.6981 20.3445 84.0656 20.1485L84.8818 22.6739C84.69 22.8044 84.4297 22.9354 84.1019 23.066C83.7737 23.1969 83.3861 23.3236 82.9378 23.4463C82.49 23.5689 81.9861 23.6668 81.4263 23.7405C80.866 23.8139 80.2665 23.8506 79.6263 23.8506V23.8506ZM91.8169 21.3989C92.7126 21.3989 93.3929 21.3496 93.8566 21.2518V17.9662C93.6968 17.9173 93.4647 17.8684 93.1609 17.8191C92.8566 17.7702 92.5207 17.7458 92.1528 17.7458C91.8331 17.7458 91.5088 17.7702 91.181 17.8191C90.8532 17.8684 90.5571 17.9584 90.293 18.0889C90.0293 18.2195 89.8173 18.4037 89.6571 18.6408C89.4972 18.8775 89.4173 19.1757 89.4173 19.5355C89.4173 20.2384 89.6331 20.7248 90.0652 20.9942C90.4972 21.264 91.081 21.3989 91.8169 21.3989V21.3989ZM91.5771 10.3411C92.537 10.3411 93.3447 10.4638 94.0006 10.7092C94.6566 10.9541 95.1806 11.2978 95.5724 11.7387C95.9643 12.1802 96.2447 12.7155 96.4126 13.3446C96.5806 13.9742 96.6643 14.6645 96.6643 15.4164V23.1887C96.2165 23.2869 95.5404 23.4052 94.6365 23.5441C93.7327 23.6829 92.7126 23.7528 91.5771 23.7528C90.825 23.7528 90.1374 23.679 89.513 23.5318C88.8891 23.3847 88.3575 23.148 87.9173 22.821C87.4776 22.494 87.1335 22.0692 86.8857 21.5461C86.6374 21.023 86.5135 20.3773 86.5135 19.6092C86.5135 18.8735 86.6536 18.2522 86.9335 17.7458C87.2135 17.2388 87.5934 16.8262 88.0733 16.5075C88.5532 16.1888 89.1092 15.96 89.7412 15.8211C90.3729 15.6823 91.0331 15.6129 91.7212 15.6129C92.0408 15.6129 92.3771 15.6329 92.7288 15.674C93.081 15.715 93.4566 15.7845 93.8566 15.8823V15.3919C93.8566 15.0488 93.8169 14.7217 93.7365 14.4113C93.6566 14.1008 93.5169 13.8271 93.3169 13.59C93.1169 13.3529 92.8528 13.1691 92.525 13.0381C92.1968 12.9076 91.7848 12.8421 91.2891 12.8421C90.6169 12.8421 90.0011 12.891 89.4412 12.9892C88.8814 13.0875 88.4254 13.2018 88.0733 13.3324L87.7135 10.9297C88.0814 10.7991 88.6173 10.6681 89.3212 10.5376C90.025 10.4066 90.7771 10.3411 91.5771 10.3411V10.3411ZM100.072 7.27648L102.976 6.78616V10.6598H107.439V13.1364H102.976V18.3588C102.976 19.3883 103.136 20.124 103.456 20.5654C103.775 21.0064 104.319 21.2274 105.087 21.2274C105.615 21.2274 106.084 21.1702 106.491 21.0558C106.899 20.9414 107.223 20.8348 107.463 20.737L107.943 23.0904C107.607 23.2376 107.167 23.3891 106.623 23.5441C106.079 23.6995 105.44 23.7772 104.704 23.7772C103.807 23.7772 103.06 23.6545 102.46 23.4096C101.86 23.1642 101.384 22.8088 101.032 22.3429C100.68 21.877 100.432 21.3129 100.288 20.651C100.144 19.9891 100.072 19.2333 100.072 18.3832V7.27648V7.27648ZM114.663 21.3989C115.558 21.3989 116.238 21.3496 116.702 21.2518V17.9662C116.542 17.9173 116.31 17.8684 116.006 17.8191C115.702 17.7702 115.366 17.7458 114.998 17.7458C114.678 17.7458 114.354 17.7702 114.026 17.8191C113.699 17.8684 113.402 17.9584 113.139 18.0889C112.875 18.2195 112.663 18.4037 112.503 18.6408C112.343 18.8775 112.263 19.1757 112.263 19.5355C112.263 20.2384 112.479 20.7248 112.91 20.9942C113.343 21.264 113.927 21.3989 114.663 21.3989V21.3989ZM114.422 10.3411C115.382 10.3411 116.19 10.4638 116.846 10.7092C117.502 10.9541 118.026 11.2978 118.418 11.7387C118.81 12.1802 119.09 12.7155 119.258 13.3446C119.426 13.9742 119.51 14.6645 119.51 15.4164V23.1887C119.062 23.2869 118.386 23.4052 117.482 23.5441C116.578 23.6829 115.558 23.7528 114.422 23.7528C113.671 23.7528 112.983 23.679 112.359 23.5318C111.735 23.3847 111.203 23.148 110.763 22.821C110.323 22.494 109.979 22.0692 109.731 21.5461C109.483 21.023 109.359 20.3773 109.359 19.6092C109.359 18.8735 109.499 18.2522 109.779 17.7458C110.059 17.2388 110.439 16.8262 110.919 16.5075C111.399 16.1888 111.954 15.96 112.587 15.8211C113.219 15.6823 113.878 15.6129 114.566 15.6129C114.887 15.6129 115.222 15.6329 115.574 15.674C115.926 15.715 116.302 15.7845 116.702 15.8823V15.3919C116.702 15.0488 116.662 14.7217 116.582 14.4113C116.502 14.1008 116.362 13.8271 116.162 13.59C115.962 13.3529 115.698 13.1691 115.37 13.0381C115.042 12.9076 114.631 12.8421 114.134 12.8421C113.463 12.8421 112.846 12.891 112.287 12.9892C111.727 13.0875 111.271 13.2018 110.919 13.3324L110.559 10.9297C110.927 10.7991 111.463 10.6681 112.166 10.5376C112.871 10.4066 113.622 10.3411 114.422 10.3411V10.3411ZM127.429 23.7283C126.565 23.7117 125.849 23.6135 125.281 23.434C124.713 23.2541 124.261 22.9965 123.925 22.6617C123.59 22.3263 123.354 21.9098 123.217 21.4112C123.081 20.9126 123.013 20.3445 123.013 19.707V4.94755L125.917 4.45723V19.1434C125.917 19.5027 125.945 19.8053 126.001 20.0502C126.057 20.2956 126.157 20.5039 126.301 20.6755C126.445 20.8471 126.641 20.978 126.889 21.068C127.137 21.1579 127.453 21.2274 127.837 21.2763L127.429 23.7283V23.7283ZM141.54 17.0594C141.54 18.0728 141.396 18.9962 141.107 19.8297C140.819 20.6632 140.411 21.3745 139.884 21.9626C139.356 22.5512 138.72 23.0088 137.976 23.3358C137.232 23.6628 136.412 23.8261 135.516 23.8261C134.62 23.8261 133.804 23.6628 133.068 23.3358C132.332 23.0088 131.701 22.5512 131.172 21.9626C130.645 21.3745 130.233 20.6632 129.937 19.8297C129.641 18.9962 129.493 18.0728 129.493 17.0594C129.493 16.046 129.641 15.1265 129.937 14.3008C130.233 13.4756 130.649 12.7687 131.184 12.1802C131.72 11.5916 132.356 11.1384 133.093 10.8197C133.828 10.5005 134.636 10.3411 135.516 10.3411C136.396 10.3411 137.208 10.5005 137.952 10.8197C138.696 11.1384 139.331 11.5916 139.86 12.1802C140.387 12.7687 140.799 13.4756 141.096 14.3008C141.391 15.1265 141.54 16.046 141.54 17.0594V17.0594ZM138.564 17.0594C138.564 15.7845 138.296 14.775 137.76 14.0314C137.224 13.2874 136.476 12.9159 135.516 12.9159C134.556 12.9159 133.808 13.2874 133.272 14.0314C132.737 14.775 132.468 15.7845 132.468 17.0594C132.468 18.3505 132.737 19.3722 133.272 20.124C133.808 20.8759 134.556 21.2518 135.516 21.2518C136.476 21.2518 137.224 20.8759 137.76 20.124C138.296 19.3722 138.564 18.3505 138.564 17.0594ZM146.819 16.7407C146.819 17.999 147.087 18.9185 147.622 19.4988C148.159 20.079 148.851 20.3694 149.699 20.3694C150.163 20.3694 150.598 20.3039 151.006 20.1729C151.414 20.0424 151.746 19.8869 152.002 19.707V13.063C151.794 13.0137 151.538 12.9687 151.234 12.9281C150.93 12.887 150.546 12.8665 150.082 12.8665C149.027 12.8665 148.219 13.2224 147.659 13.9332C147.099 14.6444 146.819 15.5801 146.819 16.7407V16.7407ZM154.906 22.1836C154.906 24.2265 154.398 25.7224 153.382 26.6703C152.366 27.6182 150.81 28.0923 148.714 28.0923C147.947 28.0923 147.199 28.0268 146.471 27.8963C145.743 27.7653 145.083 27.5937 144.491 27.3811L145.019 24.8561C145.515 25.0683 146.079 25.2399 146.711 25.3709C147.343 25.5014 148.027 25.5669 148.763 25.5669C149.931 25.5669 150.762 25.3215 151.258 24.8312C151.754 24.3409 152.002 23.6135 152.002 22.6494V22.1591C151.714 22.3062 151.334 22.4534 150.862 22.6005C150.39 22.7472 149.85 22.821 149.243 22.821C148.443 22.821 147.71 22.69 147.047 22.4285C146.383 22.167 145.815 21.7832 145.343 21.2763C144.871 20.7698 144.503 20.1362 144.239 19.3761C143.975 18.6159 143.843 17.7375 143.843 16.7407C143.843 15.8089 143.983 14.9505 144.263 14.1659C144.543 13.3817 144.951 12.7115 145.487 12.1557C146.023 11.5999 146.675 11.1668 147.443 10.8563C148.21 10.5455 149.083 10.3905 150.058 10.3905C151.002 10.3905 151.898 10.4638 152.746 10.6109C153.594 10.7581 154.314 10.9135 154.906 11.0768V22.1836V22.1836Z" fill="#FF0000"/>
<path d="M5.85907 19.5088L6.35949 20.0201V12.9394C6.35949 11.162 7.06505 9.55258 8.20522 8.38768C9.34539 7.22278 10.9206 6.50192 12.6603 6.50192C14.4001 6.50192 15.9757 7.22278 17.1159 8.38768C18.2561 9.55258 18.9616 11.162 18.9616 12.9394C18.9616 14.7169 18.2561 16.3263 17.1159 17.4916C16.5992 18.0195 15.9933 18.4557 15.3232 18.7753L17.7915 21.2618L19.4796 19.5293C20.23 18.7024 20.8292 17.7562 21.2565 16.7372H24.1044C24.0266 16.983 23.9411 17.2257 23.8484 17.4663C23.2941 18.9028 22.4783 20.2345 21.433 21.3863C18.5146 24.3701 15.6061 27.3649 12.6933 30.3545L11.7484 29.3891L3.96847 21.4404L3.94753 21.4138C2.883 20.2716 2.05436 18.9421 1.49154 17.5039C0.925732 16.0591 0.627441 14.5108 0.627441 12.9394C0.627441 9.54472 1.97445 6.47136 4.1518 4.24634C6.32958 2.02176 9.3377 0.645538 12.6603 0.645538C15.9834 0.645538 18.9915 2.02176 21.1689 4.24634C22.4962 5.60292 23.515 7.2743 24.1086 9.14216H21.2522C20.78 8.02834 20.1065 7.02412 19.2783 6.17795C17.5847 4.44762 15.245 3.37747 12.6603 3.37747C10.0757 3.37747 7.73599 4.44762 6.0424 6.17795C4.34881 7.90827 3.30137 10.2988 3.30137 12.9394C3.30137 14.1733 3.53129 15.3771 3.96676 16.4905C4.40137 17.5999 5.03898 18.6268 5.85693 19.511L5.85907 19.5088V19.5088ZM9.03342 22.752L12.6941 26.4921L15.9048 23.1974L12.086 19.3508C10.9561 19.2464 9.91206 18.8369 9.03342 18.2042V22.752V22.752ZM15.2253 10.3193C14.5689 9.64864 13.6621 9.23385 12.6603 9.23385C11.6591 9.23385 10.7518 9.64864 10.0958 10.3193C9.43941 10.9895 9.03342 11.916 9.03342 12.9394C9.03342 13.9629 9.43941 14.8894 10.0958 15.56C10.7518 16.2302 11.6591 16.645 12.6603 16.645C13.6621 16.645 14.5689 16.2302 15.2253 15.56C15.8817 14.8894 16.2877 13.9629 16.2877 12.9394C16.2877 11.916 15.8817 10.9895 15.2253 10.3193Z" fill="#FF0000"/>
</svg>
