<svg width="36" height="33" viewBox="0 0 36 33" fill="none" xmlns="http://www.w3.org/2000/svg">
<path d="M27 18C27 20.3869 26.0518 22.6761 24.364 24.364C22.6761 26.0518 20.3869 27 18 27C15.6131 27 13.3239 26.0518 11.636 24.364C9.94821 22.6761 9 20.3869 9 18C9 15.6131 9.94821 13.3239 11.636 11.636C13.3239 9.94821 15.6131 9 18 9C20.3869 9 22.6761 9.94821 24.364 11.636C26.0518 13.3239 27 15.6131 27 18ZM24 18C24 16.4087 23.3679 14.8826 22.2426 13.7574C21.1174 12.6321 19.5913 12 18 12C16.4087 12 14.8826 12.6321 13.7574 13.7574C12.6321 14.8826 12 16.4087 12 18C12 19.5913 12.6321 21.1174 13.7574 22.2426C14.8826 23.3679 16.4087 24 18 24C19.5913 24 21.1174 23.3679 22.2426 22.2426C23.3679 21.1174 24 19.5913 24 18ZM13.854 0C13.0179 2.82451e-05 12.1983 0.233018 11.4871 0.672835C10.776 1.11265 10.2015 1.7419 9.828 2.49L8.073 6H6C4.4087 6 2.88258 6.63214 1.75736 7.75736C0.632141 8.88258 0 10.4087 0 12V27C0 28.5913 0.632141 30.1174 1.75736 31.2426C2.88258 32.3679 4.4087 33 6 33H30C31.5913 33 33.1174 32.3679 34.2426 31.2426C35.3679 30.1174 36 28.5913 36 27V12C36 10.4087 35.3679 8.88258 34.2426 7.75736C33.1174 6.63214 31.5913 6 30 6H27.927L26.172 2.49C25.7985 1.7419 25.224 1.11265 24.5129 0.672835C23.8017 0.233018 22.9821 2.82451e-05 22.146 0H13.854ZM12.513 3.828C12.6377 3.57916 12.8292 3.36992 13.066 3.22369C13.3028 3.07746 13.5757 3.00001 13.854 3H22.146C22.4243 3.00001 22.6972 3.07746 22.934 3.22369C23.1708 3.36992 23.3623 3.57916 23.487 3.828L25.659 8.172C25.7837 8.42084 25.9752 8.63008 26.212 8.77631C26.4488 8.92254 26.7217 8.99999 27 9H30C30.7956 9 31.5587 9.31607 32.1213 9.87868C32.6839 10.4413 33 11.2044 33 12V27C33 27.7956 32.6839 28.5587 32.1213 29.1213C31.5587 29.6839 30.7956 30 30 30H6C5.20435 30 4.44129 29.6839 3.87868 29.1213C3.31607 28.5587 3 27.7956 3 27V12C3 11.2044 3.31607 10.4413 3.87868 9.87868C4.44129 9.31607 5.20435 9 6 9H9C9.27834 8.99999 9.55118 8.92254 9.78801 8.77631C10.0248 8.63008 10.2163 8.42084 10.341 8.172L12.513 3.828Z" fill="#BABABA"/>
</svg>
