<svg width="20" height="20" viewBox="0 0 20 20" fill="none" xmlns="http://www.w3.org/2000/svg">
<path d="M14.987 10.7812C14.987 11.2127 14.6372 11.5624 14.2057 11.5624H13.4505C13.019 11.5624 12.6693 11.2127 12.6693 10.7812C12.6693 10.3497 13.019 9.99995 13.4505 9.99995H14.2057C14.6372 9.99995 14.987 10.3497 14.987 10.7812ZM10.7292 9.99995H5.39063C4.95914 9.99995 4.60938 10.3497 4.60938 10.7812C4.60938 11.2127 4.95914 11.5624 5.39063 11.5624H10.7292C11.1607 11.5624 11.5104 11.2127 11.5104 10.7812C11.5104 10.3497 11.1607 9.99995 10.7292 9.99995ZM14.6094 5.3906H5.39063C4.95914 5.3906 4.60938 5.74036 4.60938 6.17184C4.60938 6.60332 4.95914 6.95309 5.39063 6.95309H14.6094C15.0409 6.95309 15.3906 6.60332 15.3906 6.17184C15.3906 5.74036 15.0409 5.3906 14.6094 5.3906ZM20 3.12498V13.8215C20 15.5446 18.5981 16.9465 16.875 16.9465H8.76762L6.26129 19.4529C5.08793 20.6262 3.07293 19.7858 3.07293 18.1322V16.9461C1.37367 16.9183 0 15.5273 0 13.8215V3.12498C0 1.40187 1.40188 0 3.125 0H16.875C18.5982 0 20 1.40187 20 3.12498ZM18.4375 3.12498C18.4375 2.26343 17.7366 1.56249 16.875 1.56249H3.125C2.26344 1.56249 1.5625 2.26343 1.5625 3.12498V13.8215C1.5625 14.6831 2.26344 15.384 3.125 15.384C3.95785 15.384 4.63543 16.0616 4.63543 16.8944V18.1322C4.63543 18.4025 4.96473 18.5397 5.15641 18.348L7.67801 15.8264C7.96332 15.5412 8.34262 15.3841 8.74605 15.3841H16.875C17.7366 15.3841 18.4375 14.6831 18.4375 13.8216V3.12498H18.4375Z" fill="#999999"/>
</svg>
